<svg width="60" height="60" viewBox="0 0 60 60" fill="none" xmlns="http://www.w3.org/2000/svg">
<path d="M31.8751 1.875C31.8751 1.37772 31.6776 0.900805 31.326 0.549175C30.9743 0.197544 30.4974 0 30.0001 0C29.5028 0 29.0259 0.197544 28.6743 0.549175C28.3227 0.900805 28.1251 1.37772 28.1251 1.875V4.125C28.1251 4.62228 28.3227 5.09919 28.6743 5.45083C29.0259 5.80246 29.5028 6 30.0001 6C30.4974 6 30.9743 5.80246 31.326 5.45083C31.6776 5.09919 31.8751 4.62228 31.8751 4.125V1.875ZM30.0001 9C26.8175 9 23.7653 10.2643 21.5148 12.5147C19.2644 14.7652 18.0001 17.8174 18.0001 21C18.0001 24.1826 19.2644 27.2348 21.5148 29.4853C23.7653 31.7357 26.8175 33 30.0001 33C33.1827 33 36.235 31.7357 38.4854 29.4853C40.7358 27.2348 42.0001 24.1826 42.0001 21C42.0001 17.8174 40.7358 14.7652 38.4854 12.5147C36.235 10.2643 33.1827 9 30.0001 9ZM0.435124 59.325C0.753466 59.7068 1.21039 59.9465 1.70544 59.9915C2.20049 60.0365 2.69316 59.8831 3.07512 59.565L3.09012 59.5545L3.16512 59.4945C3.23512 59.4375 3.34512 59.3525 3.49512 59.2395C3.79662 59.0145 4.25562 58.6845 4.86312 58.2855C6.57578 57.1704 8.36754 56.1818 10.2241 55.3275C16.4245 52.4687 23.1724 50.9921 30.0001 51C38.3401 51 45.1036 53.1645 49.7776 55.3275C51.6342 56.1818 53.426 57.1704 55.1386 58.2855C55.7192 58.6677 56.2856 59.0709 56.8366 59.4945L56.9116 59.5545L56.9236 59.565C57.1128 59.7227 57.3312 59.8417 57.5664 59.915C57.8015 59.9883 58.0488 60.0146 58.2941 59.9923C58.5394 59.97 58.7779 59.8996 58.996 59.7851C59.2141 59.6706 59.4075 59.5143 59.5651 59.325C60.5851 58.0035 59.3251 56.685 59.3251 56.685L59.3206 56.6805L59.2756 56.6445L59.2186 56.598L59.1646 56.553C59.0686 56.477 58.9311 56.372 58.7521 56.238C58.2456 55.8605 57.7279 55.4984 57.1996 55.152C55.3328 53.9321 53.378 52.8526 51.3511 51.9225C44.6569 48.8358 37.3717 47.2415 30.0001 47.25C22.6286 47.2415 15.3433 48.8358 8.64912 51.9225C6.12162 53.0925 4.14912 54.264 2.80062 55.152C2.12794 55.5942 1.47246 56.0621 0.835625 56.5545L0.723124 56.6445L0.691625 56.6715L0.681125 56.6805C0.0361245 57.2145 -0.0793755 58.707 0.435124 59.325ZM30.0001 36C31.0351 36 31.8751 36.84 31.8751 37.875V40.125C31.8751 40.6223 31.6776 41.0992 31.326 41.4508C30.9743 41.8025 30.4974 42 30.0001 42C29.5028 42 29.0259 41.8025 28.6743 41.4508C28.3227 41.0992 28.1251 40.6223 28.1251 40.125V37.875C28.1251 36.84 28.9651 36 30.0001 36ZM9.00012 19.875C9.00012 18.84 9.84012 18 10.8751 18H13.1251C13.6224 18 14.0993 18.1975 14.4509 18.5492C14.8026 18.9008 15.0001 19.3777 15.0001 19.875C15.0001 20.3723 14.8026 20.8492 14.4509 21.2008C14.0993 21.5525 13.6224 21.75 13.1251 21.75H10.8751C9.84012 21.75 9.00012 20.91 9.00012 19.875ZM46.8751 18C46.3778 18 45.9009 18.1975 45.5493 18.5492C45.1977 18.9008 45.0001 19.3777 45.0001 19.875C45.0001 20.3723 45.1977 20.8492 45.5493 21.2008C45.9009 21.5525 46.3778 21.75 46.8751 21.75H49.1251C49.6224 21.75 50.0993 21.5525 50.451 21.2008C50.8026 20.8492 51.0001 20.3723 51.0001 19.875C51.0001 19.3777 50.8026 18.9008 50.451 18.5492C50.0993 18.1975 49.6224 18 49.1251 18H46.8751ZM17.4511 11.451C17.277 11.6252 17.0703 11.7633 16.8428 11.8576C16.6153 11.9518 16.3714 12.0003 16.1251 12.0003C15.8789 12.0003 15.635 11.9518 15.4075 11.8576C15.18 11.7633 14.9732 11.6252 14.7991 11.451L12.5491 9.201C12.1974 8.84932 11.9999 8.37235 11.9999 7.875C11.9999 7.62874 12.0484 7.38489 12.1426 7.15737C12.2369 6.92986 12.375 6.72313 12.5491 6.549C12.7233 6.37487 12.93 6.23674 13.1575 6.1425C13.385 6.04826 13.6289 5.99975 13.8751 5.99975C14.3725 5.99975 14.8494 6.19732 15.2011 6.549L17.4511 8.799C17.6253 8.97312 17.7634 9.17984 17.8577 9.40735C17.952 9.63487 18.0005 9.87873 18.0005 10.125C18.0005 10.3713 17.952 10.6151 17.8577 10.8426C17.7634 11.0702 17.6253 11.2769 17.4511 11.451ZM14.7991 30.549C15.1508 30.1973 15.6278 29.9998 16.1251 29.9998C16.6225 29.9998 17.0994 30.1973 17.4511 30.549C17.8028 30.9007 18.0004 31.3777 18.0004 31.875C18.0004 32.3723 17.8028 32.8493 17.4511 33.201L15.2011 35.451C14.8494 35.8027 14.3725 36.0002 13.8751 36.0002C13.3778 36.0002 12.9008 35.8027 12.5491 35.451C12.1974 35.0993 11.9999 34.6223 11.9999 34.125C11.9999 33.6277 12.1974 33.1507 12.5491 32.799L14.7991 30.549ZM42.5491 11.451C42.7232 11.6252 42.93 11.7633 43.1575 11.8576C43.385 11.9518 43.6289 12.0003 43.8751 12.0003C44.1214 12.0003 44.3653 11.9518 44.5928 11.8576C44.8203 11.7633 45.027 11.6252 45.2011 11.451L47.4511 9.201C47.6253 9.02687 47.7634 8.82014 47.8576 8.59263C47.9519 8.36511 48.0004 8.12126 48.0004 7.875C48.0004 7.62874 47.9519 7.38489 47.8576 7.15737C47.7634 6.92986 47.6253 6.72313 47.4511 6.549C47.277 6.37487 47.0703 6.23674 46.8428 6.1425C46.6152 6.04826 46.3714 5.99975 46.1251 5.99975C45.8789 5.99975 45.635 6.04826 45.4075 6.1425C45.18 6.23674 44.9733 6.37487 44.7991 6.549L42.5491 8.799C42.375 8.97312 42.2368 9.17984 42.1425 9.40735C42.0483 9.63487 41.9998 9.87873 41.9998 10.125C41.9998 10.3713 42.0483 10.6151 42.1425 10.8426C42.2368 11.0702 42.375 11.2769 42.5491 11.451ZM45.2011 30.549C45.027 30.3749 44.8203 30.2367 44.5928 30.1425C44.3652 30.0483 44.1214 29.9998 43.8751 29.9998C43.6289 29.9998 43.385 30.0483 43.1575 30.1425C42.93 30.2367 42.7233 30.3749 42.5491 30.549C42.375 30.7231 42.2369 30.9299 42.1426 31.1574C42.0484 31.3849 41.9999 31.6287 41.9999 31.875C41.9999 32.1213 42.0484 32.3651 42.1426 32.5926C42.2369 32.8201 42.375 33.0269 42.5491 33.201L44.7991 35.451C45.1508 35.8027 45.6278 36.0002 46.1251 36.0002C46.6225 36.0002 47.0994 35.8027 47.4511 35.451C47.8028 35.0993 48.0004 34.6223 48.0004 34.125C48.0004 33.6277 47.8028 33.1507 47.4511 32.799L45.2011 30.549Z" fill="url(#paint0_linear_125_3258)"/>
<defs>
<linearGradient id="paint0_linear_125_3258" x1="30.0382" y1="0" x2="30.0382" y2="60" gradientUnits="userSpaceOnUse">
<stop stop-color="#FF3B18"/>
<stop offset="1" stop-color="#FF9D8C"/>
</linearGradient>
</defs>
</svg>
