<svg width="52" height="52" viewBox="0 0 52 52" fill="none" xmlns="http://www.w3.org/2000/svg">
<path d="M40.5466 35.1207C26.3668 35.1207 17.2975 26.236 17.2975 12.0305C17.2975 9.09498 18.0054 4.90143 18.9235 2.72638C19.1852 2.12251 19.2109 1.75571 19.2109 1.49404C19.2109 0.786166 18.6876 1.52588e-05 17.6912 1.52588e-05C17.3769 1.52588e-05 16.7742 0.0782947 16.1972 0.288531C6.49944 4.16784 0 14.5992 0 25.5807C0 40.9917 11.7419 52 27.1004 52C38.3704 52 48.1732 45.1595 51.423 36.6147C51.5825 36.1414 51.6707 35.6469 51.6846 35.1475C51.6846 34.178 50.8985 33.5227 50.1638 33.5227C49.8238 33.5227 49.5353 33.601 49.0377 33.7575C47.0203 34.4128 43.7706 35.1218 40.5466 35.1218" fill="url(#paint0_linear_125_3343)"/>
<defs>
<linearGradient id="paint0_linear_125_3343" x1="25.8423" y1="1.52588e-05" x2="25.8423" y2="52" gradientUnits="userSpaceOnUse">
<stop stop-color="#FF9D8C"/>
<stop offset="1" stop-color="#FF3B18"/>
</linearGradient>
</defs>
</svg>
