<svg width="60" height="60" viewBox="0 0 60 60" fill="none" xmlns="http://www.w3.org/2000/svg">
<path d="M30 12C29.2389 12 28.5091 11.6977 27.9709 11.1595C27.4328 10.6214 27.1304 9.89149 27.1304 9.13043V2.86957C27.1304 2.10851 27.4328 1.37862 27.9709 0.840476C28.5091 0.302328 29.2389 0 30 0C30.7611 0 31.4909 0.302328 32.0291 0.840476C32.5672 1.37862 32.8696 2.10851 32.8696 2.86957V9.13043C32.8696 9.89149 32.5672 10.6214 32.0291 11.1595C31.4909 11.6977 30.7611 12 30 12ZM30 60C29.2389 60 28.5091 59.6977 27.9709 59.1595C27.4328 58.6214 27.1304 57.8915 27.1304 57.1304V50.8696C27.1304 50.1085 27.4328 49.3786 27.9709 48.8405C28.5091 48.3023 29.2389 48 30 48C30.7611 48 31.4909 48.3023 32.0291 48.8405C32.5672 49.3786 32.8696 50.1085 32.8696 50.8696V57.1304C32.8696 57.8915 32.5672 58.6214 32.0291 59.1595C31.4909 59.6977 30.7611 60 30 60ZM44.7574 18.1122C44.19 18.1121 43.6353 17.9438 43.1635 17.6286C42.6917 17.3133 42.324 16.8653 42.1068 16.3411C41.8896 15.8169 41.8326 15.2401 41.9432 14.6836C42.0537 14.127 42.3268 13.6157 42.7278 13.2143L47.1548 8.78739C47.6953 8.26095 48.4214 7.96856 49.1759 7.97353C49.9304 7.97849 50.6525 8.28042 51.1861 8.81394C51.7196 9.34746 52.0215 10.0696 52.0265 10.8241C52.0314 11.5786 51.7391 12.3047 51.2126 12.8452L46.7857 17.2722C46.5196 17.5389 46.2034 17.7503 45.8553 17.8945C45.5072 18.0387 45.1341 18.1126 44.7574 18.1122ZM10.8157 52.0539C10.2481 52.0538 9.69327 51.8855 9.2214 51.5701C8.74953 51.2547 8.38178 50.8064 8.16467 50.282C7.94757 49.7576 7.89085 49.1806 8.00169 48.6239C8.11254 48.0673 8.38596 47.556 8.78739 47.1548L13.2143 42.7278C13.4795 42.4556 13.7961 42.2387 14.1457 42.0899C14.4954 41.941 14.8711 41.863 15.2511 41.8605C15.6311 41.858 16.0078 41.931 16.3594 42.0753C16.711 42.2196 17.0304 42.4322 17.2991 42.7009C17.5678 42.9696 17.7804 43.2891 17.9247 43.6406C18.069 43.9922 18.142 44.3689 18.1395 44.7489C18.137 45.1289 18.059 45.5046 17.9101 45.8543C17.7613 46.2039 17.5444 46.5205 17.2722 46.7857L12.8452 51.2126C12.579 51.4796 12.2627 51.6914 11.9144 51.8358C11.5661 51.9802 11.1927 52.0543 10.8157 52.0539ZM57.1304 32.8696H50.8696C50.1085 32.8696 49.3786 32.5672 48.8405 32.0291C48.3023 31.4909 48 30.7611 48 30C48 29.2389 48.3023 28.5091 48.8405 27.9709C49.3786 27.4328 50.1085 27.1304 50.8696 27.1304H57.1304C57.8915 27.1304 58.6214 27.4328 59.1595 27.9709C59.6977 28.5091 60 29.2389 60 30C60 30.7611 59.6977 31.4909 59.1595 32.0291C58.6214 32.5672 57.8915 32.8696 57.1304 32.8696ZM9.13043 32.8696H2.86957C2.10851 32.8696 1.37862 32.5672 0.840476 32.0291C0.302328 31.4909 0 30.7611 0 30C0 29.2389 0.302328 28.5091 0.840476 27.9709C1.37862 27.4328 2.10851 27.1304 2.86957 27.1304H9.13043C9.89149 27.1304 10.6214 27.4328 11.1595 27.9709C11.6977 28.5091 12 29.2389 12 30C12 30.7611 11.6977 31.4909 11.1595 32.0291C10.6214 32.5672 9.89149 32.8696 9.13043 32.8696ZM49.1843 52.0539C48.8073 52.0543 48.4339 51.9802 48.0856 51.8358C47.7373 51.6914 47.421 51.4796 47.1548 51.2126L42.7278 46.7857C42.2014 46.2452 41.909 45.5191 41.914 44.7646C41.9189 44.0101 42.2209 43.2879 42.7544 42.7544C43.2879 42.2209 44.0101 41.9189 44.7646 41.914C45.5191 41.909 46.2452 42.2014 46.7857 42.7278L51.2126 47.1548C51.614 47.556 51.8875 48.0673 51.9983 48.6239C52.1091 49.1806 52.0524 49.7576 51.8353 50.282C51.6182 50.8064 51.2505 51.2547 50.7786 51.5701C50.3067 51.8855 49.7519 52.0538 49.1843 52.0539ZM15.2426 18.1122C14.8658 18.1128 14.4927 18.039 14.1446 17.8948C13.7965 17.7506 13.4803 17.539 13.2143 17.2722L8.78739 12.8452C8.26095 12.3047 7.96856 11.5786 7.97353 10.8241C7.97849 10.0696 8.28042 9.34746 8.81394 8.81394C9.34746 8.28042 10.0696 7.97849 10.8241 7.97353C11.5786 7.96856 12.3047 8.26095 12.8452 8.78739L17.2722 13.2143C17.6732 13.6157 17.9463 14.127 18.0568 14.6836C18.1674 15.2401 18.1104 15.8169 17.8932 16.3411C17.676 16.8653 17.3083 17.3133 16.8365 17.6286C16.3647 17.9438 15.81 18.1121 15.2426 18.1122ZM30 43.3043C27.3686 43.3043 24.7964 42.5241 22.6085 41.0622C20.4206 39.6003 18.7154 37.5224 17.7084 35.0914C16.7014 32.6603 16.4379 29.9852 16.9513 27.4045C17.4646 24.8237 18.7318 22.4531 20.5924 20.5924C22.4531 18.7318 24.8237 17.4646 27.4045 16.9513C29.9852 16.4379 32.6603 16.7014 35.0914 17.7084C37.5224 18.7154 39.6003 20.4206 41.0622 22.6085C42.5241 24.7964 43.3043 27.3686 43.3043 30C43.3002 33.5273 41.8972 36.9089 39.403 39.403C36.9089 41.8972 33.5273 43.3002 30 43.3043Z" fill="url(#paint0_linear_125_3311)"/>
<defs>
<linearGradient id="paint0_linear_125_3311" x1="30" y1="0" x2="30" y2="60" gradientUnits="userSpaceOnUse">
<stop stop-color="#FF9D8C"/>
<stop offset="1" stop-color="#FF3B18"/>
</linearGradient>
</defs>
</svg>
