<svg width="32" height="32" viewBox="0 0 32 32" fill="none" xmlns="http://www.w3.org/2000/svg">
<path d="M8.05125 23.3333L5.38192 26.0023C5.00259 26.3818 4.56625 26.4671 4.07292 26.2583C3.57981 26.0491 3.33325 25.6758 3.33325 25.1383V5.74359C3.33325 5.07003 3.56659 4.49992 4.03325 4.03325C4.49992 3.56659 5.07003 3.33325 5.74359 3.33325H26.2563C26.9298 3.33325 27.4999 3.56659 27.9666 4.03325C28.4333 4.49992 28.6666 5.07003 28.6666 5.74359V20.9229C28.6666 21.5965 28.4333 22.1666 27.9666 22.6333C27.4999 23.0999 26.9298 23.3333 26.2563 23.3333H8.05125ZM9.33325 18.3333H17.3333C17.6166 18.3333 17.854 18.2374 18.0456 18.0456C18.2374 17.8538 18.3333 17.6163 18.3333 17.3329C18.3333 17.0494 18.2374 16.8119 18.0456 16.6206C17.854 16.429 17.6166 16.3333 17.3333 16.3333H9.33325C9.04992 16.3333 8.81247 16.4291 8.62092 16.6209C8.42914 16.8127 8.33325 17.0503 8.33325 17.3336C8.33325 17.6171 8.42914 17.8546 8.62092 18.0459C8.81247 18.2375 9.04992 18.3333 9.33325 18.3333ZM9.33325 14.3333H22.6666C22.9499 14.3333 23.1874 14.2374 23.3789 14.0456C23.5707 13.8538 23.6666 13.6163 23.6666 13.3329C23.6666 13.0494 23.5707 12.8119 23.3789 12.6206C23.1874 12.429 22.9499 12.3333 22.6666 12.3333H9.33325C9.04992 12.3333 8.81247 12.4291 8.62092 12.6209C8.42914 12.8127 8.33325 13.0503 8.33325 13.3336C8.33325 13.6171 8.42914 13.8546 8.62092 14.0459C8.81247 14.2375 9.04992 14.3333 9.33325 14.3333ZM9.33325 10.3333H22.6666C22.9499 10.3333 23.1874 10.2374 23.3789 10.0456C23.5707 9.85381 23.6666 9.61625 23.6666 9.33292C23.6666 9.04936 23.5707 8.81192 23.3789 8.62059C23.1874 8.42903 22.9499 8.33325 22.6666 8.33325H9.33325C9.04992 8.33325 8.81247 8.42914 8.62092 8.62092C8.42914 8.8127 8.33325 9.05025 8.33325 9.33359C8.33325 9.61714 8.42914 9.85459 8.62092 10.0459C8.81247 10.2375 9.04992 10.3333 9.33325 10.3333Z" fill="#FF765D"/>
</svg>
