<svg width="28" height="28" viewBox="0 0 28 28" fill="none" xmlns="http://www.w3.org/2000/svg">
<path d="M15.75 4.73663C15.75 3.17796 13.8647 2.39746 12.7633 3.49996L7.51334 8.74996H5.25934C3.92818 8.74996 2.55501 9.52463 2.15601 10.9725C1.88532 11.9588 1.74875 12.9771 1.75001 14C1.75001 15.0476 1.89118 16.0626 2.15834 17.0275C2.55618 18.4741 3.92934 19.25 5.26051 19.25H7.51218L12.7622 24.5C13.8647 25.6025 15.75 24.822 15.75 23.2633V4.73663ZM21.6813 5.95696C21.8454 5.79311 22.0678 5.70107 22.2997 5.70107C22.5316 5.70107 22.7539 5.79311 22.918 5.95696C27.3607 10.3985 27.3607 17.6003 22.918 22.043C22.7521 22.1975 22.5328 22.2817 22.3061 22.2777C22.0794 22.2737 21.8631 22.1818 21.7028 22.0215C21.5425 21.8612 21.4506 21.6449 21.4466 21.4182C21.4426 21.1916 21.5268 20.9722 21.6813 20.8063C22.5752 19.9125 23.2843 18.8514 23.7681 17.6836C24.2519 16.5157 24.5009 15.264 24.5009 14C24.5009 12.7359 24.2519 11.4842 23.7681 10.3164C23.2843 9.14852 22.5752 8.08741 21.6813 7.19363C21.5175 7.02957 21.4254 6.80717 21.4254 6.5753C21.4254 6.34342 21.5175 6.12103 21.6813 5.95696Z" fill="#FF3515"/>
<path d="M18.5873 9.04981C18.6686 8.9685 18.7651 8.904 18.8712 8.85999C18.9774 8.81599 19.0913 8.79333 19.2062 8.79333C19.3212 8.79333 19.435 8.81599 19.5412 8.85999C19.6474 8.904 19.7439 8.9685 19.8251 9.04981C20.4753 9.69984 20.991 10.4716 21.3429 11.3209C21.6947 12.1703 21.8758 13.0806 21.8758 14C21.8758 14.9193 21.6947 15.8297 21.3429 16.679C20.991 17.5284 20.4753 18.3001 19.8251 18.9501C19.66 19.1095 19.439 19.1976 19.2096 19.1955C18.9801 19.1934 18.7607 19.1012 18.5986 18.9389C18.4364 18.7766 18.3445 18.5571 18.3426 18.3277C18.3407 18.0983 18.429 17.8773 18.5885 17.7123C19.076 17.2248 19.4627 16.646 19.7265 16.0091C19.9904 15.3721 20.1262 14.6894 20.1262 14C20.1262 13.3105 19.9904 12.6278 19.7265 11.9909C19.4627 11.3539 19.076 10.7752 18.5885 10.2876C18.4246 10.1236 18.3326 9.90119 18.3326 9.66932C18.3326 9.43744 18.4246 9.21504 18.5885 9.05098L18.5873 9.04981Z" fill="#FF3515"/>
</svg>
