<svg width="24" height="24" viewBox="0 0 24 24" fill="none" xmlns="http://www.w3.org/2000/svg">
<path d="M3.52985 2.47009C3.38767 2.33761 3.19963 2.26549 3.00532 2.26892C2.81102 2.27234 2.62564 2.35106 2.48822 2.48847C2.35081 2.62588 2.2721 2.81127 2.26867 3.00557C2.26524 3.19987 2.33737 3.38792 2.46985 3.53009L20.4698 21.5301C20.5385 21.6038 20.6213 21.6629 20.7133 21.7039C20.8053 21.7449 20.9046 21.7669 21.0053 21.7687C21.106 21.7705 21.2061 21.7519 21.2994 21.7142C21.3928 21.6765 21.4777 21.6203 21.5489 21.5491C21.6201 21.4779 21.6762 21.3931 21.714 21.2997C21.7517 21.2063 21.7702 21.1063 21.7684 21.0056C21.7667 20.9049 21.7446 20.8056 21.7036 20.7136C21.6626 20.6216 21.6035 20.5388 21.5298 20.4701L3.52985 2.47009ZM22.6758 12.5531C22.1368 14.1706 21.2371 15.6444 20.0448 16.8631L16.9458 13.7641C17.2802 12.828 17.3419 11.8163 17.1239 10.8465C16.9058 9.87669 16.4169 8.98874 15.7141 8.28588C15.0112 7.58301 14.1232 7.09413 13.1535 6.87607C12.1837 6.65802 11.1719 6.71975 10.2358 7.05409L7.75885 4.57709C9.10587 4.02905 10.5466 3.74817 12.0008 3.75009C16.9708 3.75009 21.1858 6.97309 22.6758 11.4401C22.7958 11.8021 22.7958 12.1921 22.6758 12.5531Z" fill="#555555"/>
<path d="M15.7498 12.0001C15.7498 12.1801 15.7368 12.3571 15.7128 12.5301L11.4688 8.28705C12.0008 8.21096 12.5429 8.25009 13.0584 8.4018C13.574 8.5535 14.0509 8.81424 14.4568 9.16635C14.8628 9.51846 15.1884 9.95371 15.4114 10.4426C15.6345 10.9315 15.7499 11.4627 15.7498 12.0001ZM12.5298 15.7131L8.28679 11.4691C8.20435 12.0455 8.2573 12.6333 8.44144 13.1857C8.62558 13.7382 8.93586 14.2402 9.34769 14.6519C9.75951 15.0636 10.2616 15.3738 10.8141 15.5578C11.3666 15.7418 11.9543 15.7946 12.5308 15.7121L12.5298 15.7131Z" fill="#555555"/>
<path d="M6.74989 12C6.74989 11.381 6.85689 10.787 7.05389 10.236L3.95389 7.13599C2.76199 8.35483 1.86267 9.82861 1.32389 11.446C1.20389 11.808 1.20389 12.198 1.32389 12.56C2.81289 17.027 7.02789 20.25 11.9989 20.25C13.4989 20.25 14.9319 19.956 16.2409 19.423L13.7639 16.946C12.9715 17.2286 12.1229 17.3168 11.2893 17.2029C10.4558 17.0891 9.66188 16.7766 8.97437 16.2917C8.28685 15.8069 7.72591 15.164 7.33878 14.4171C6.95166 13.6702 6.74969 12.8412 6.74989 12Z" fill="#555555"/>
</svg>
