<svg width="19" height="17" viewBox="0 0 19 17" fill="none" xmlns="http://www.w3.org/2000/svg">
<path d="M10.1927 3.8125C10.5688 3.59375 10.8194 3.19687 10.8194 2.75C10.8194 2.05937 10.229 1.5 9.5 1.5C8.77101 1.5 8.18056 2.05937 8.18056 2.75C8.18056 3.2 8.43125 3.59375 8.80729 3.8125L6.91719 7.39375C6.61701 7.9625 5.83854 8.125 5.31406 7.72813L2.375 5.5C2.53993 5.29063 2.63889 5.03125 2.63889 4.75C2.63889 4.05938 2.04844 3.5 1.31944 3.5C0.590451 3.5 0 4.05938 0 4.75C0 5.44062 0.590451 6 1.31944 6H1.34253L2.85 13.8562C3.03142 14.8062 3.90556 15.5 4.92812 15.5H14.0719C15.0911 15.5 15.9653 14.8094 16.15 13.8562L17.6575 6H17.6806C18.4095 6 19 5.44062 19 4.75C19 4.05938 18.4095 3.5 17.6806 3.5C16.9516 3.5 16.3611 4.05938 16.3611 4.75C16.3611 5.03125 16.4601 5.29063 16.625 5.5L13.6859 7.72813C13.1615 8.125 12.383 7.9625 12.0828 7.39375L10.1927 3.8125Z" fill="#FFE100"/>
</svg>
