<svg width="24" height="29" viewBox="0 0 24 29" fill="none" xmlns="http://www.w3.org/2000/svg">
<path d="M5.30775 24.4166C4.80258 24.4166 4.375 24.2124 4.025 23.8041C3.675 23.3958 3.5 22.8969 3.5 22.3075V6.69229C3.5 6.10293 3.675 5.60409 4.025 5.19575C4.375 4.78742 4.80258 4.58325 5.30775 4.58325H11.2598C11.4724 4.58325 11.6506 4.66706 11.7943 4.83467C11.9378 5.00209 12.0095 5.20995 12.0095 5.45825C12.0095 5.70656 11.9378 5.91442 11.7943 6.08184C11.6506 6.24945 11.4724 6.33325 11.2598 6.33325H5.30775C5.23075 6.33325 5.16025 6.37068 5.09625 6.44554C5.03208 6.52021 5 6.60246 5 6.69229V22.3075C5 22.3974 5.03208 22.4796 5.09625 22.5543C5.16025 22.6292 5.23075 22.6666 5.30775 22.6666H11.2598C11.4724 22.6666 11.6506 22.7504 11.7943 22.918C11.9378 23.0854 12.0095 23.2933 12.0095 23.5416C12.0095 23.7899 11.9378 23.9978 11.7943 24.1652C11.6506 24.3328 11.4724 24.4166 11.2598 24.4166H5.30775ZM17.6173 15.3749H9.84625C9.63342 15.3749 9.45517 15.2911 9.3115 15.1235C9.168 14.9561 9.09625 14.7482 9.09625 14.4999C9.09625 14.2516 9.168 14.0438 9.3115 13.8763C9.45517 13.7087 9.63342 13.6249 9.84625 13.6249H17.6173L15.6943 11.3814C15.5558 11.2198 15.4849 11.0228 15.4818 10.7902C15.4786 10.5577 15.5494 10.3509 15.6943 10.1698C15.8391 9.98881 16.0148 9.89528 16.2213 9.88925C16.4276 9.88342 16.6083 9.97092 16.7635 10.1518L19.8578 13.7617C20.0384 13.9727 20.1288 14.2188 20.1288 14.4999C20.1288 14.7811 20.0384 15.0272 19.8578 15.2381L16.7635 18.8481C16.6148 19.0215 16.4383 19.1071 16.2338 19.1048C16.0293 19.1026 15.8494 19.011 15.6943 18.83C15.5494 18.649 15.4796 18.4411 15.4848 18.2064C15.4898 17.9715 15.5648 17.7696 15.7098 17.6006L17.6173 15.3749Z" fill="#FF3B18"/>
</svg>
