<svg width="228" height="100" viewBox="0 0 228 100" fill="none" xmlns="http://www.w3.org/2000/svg">
<path d="M52.8131 72.32C48.9992 73.76 45.8487 74.08 41.952 74.08C29.184 74.08 19.2349 68.7999 19.2349 52.6399C19.2349 37.6799 27.6916 31.1199 38.0552 31.1199C47.1752 31.1199 54.4712 36.8799 54.4712 46.2399C54.4712 52.7199 51.2378 56.7199 42.5323 56.9599L29.9301 57.2799C29.9301 61.8399 34.9876 65.1199 42.0349 65.1199C46.2632 65.1199 49.8283 64.3999 52.6472 63.4399L54.1396 70.0799C54.3883 71.2 54.0567 71.84 52.8131 72.32ZM44.9367 45.6799C44.9367 42.5599 42.5323 39.7599 38.2211 39.7599C33.0807 39.7599 29.9301 43.1199 29.9301 49.2799L41.6203 49.1199C43.8589 49.1199 44.9367 48.0799 44.9367 45.6799ZM89.4744 72.32C85.6606 73.76 82.5101 74.08 78.6133 74.08C65.8453 74.08 55.8962 68.7999 55.8962 52.6399C55.8962 37.6799 64.353 31.1199 74.7166 31.1199C83.8366 31.1199 91.1326 36.8799 91.1326 46.2399C91.1326 52.7199 87.8992 56.7199 79.1937 56.9599L66.5915 57.2799C66.5915 61.8399 71.649 65.1199 78.6962 65.1199C82.9246 65.1199 86.4897 64.3999 89.3086 63.4399L90.801 70.0799C91.0497 71.2 90.7181 71.84 89.4744 72.32ZM81.5981 45.6799C81.5981 42.5599 79.1937 39.7599 74.8824 39.7599C69.7421 39.7599 66.5915 43.1199 66.5915 49.2799L78.2817 49.1199C80.5203 49.1199 81.5981 48.0799 81.5981 45.6799ZM110.632 31.1199C120.166 31.1199 127.462 36.4799 127.462 45.6799V67.1999C127.462 71.5199 126.136 73.36 120.083 73.36H118.011V70.5599C115.855 72.7999 111.627 74.08 107.15 74.08C98.9416 74.08 92.6405 70.5599 92.6405 62.3199C92.6405 52.2399 102.009 47.2799 116.85 48.3199V46.8799C116.85 42.5599 113.451 40.4799 109.471 40.4799C105.989 40.4799 103.502 41.9199 100.849 44.4799L95.874 40.7999C94.4645 39.7599 94.2987 38.4799 95.4594 37.2799C99.1903 33.3599 104.248 31.1199 110.632 31.1199ZM116.85 63.9199V55.9999C107.481 55.1199 103.336 57.6799 103.336 61.2799C103.336 64.1599 105.243 65.7599 109.554 65.7599C112.124 65.7599 114.694 65.1999 116.85 63.9199ZM155.401 62.3999L158.22 69.2799C158.717 70.4799 158.385 71.44 156.893 72.16C154.903 73.2 152.333 73.84 149.017 73.84C141.14 73.84 135.585 70.2399 135.585 61.2799V41.0399H131.274C129.533 41.0399 128.621 40.2399 128.621 38.5599V31.5199H135.585V18.9599H143.71C145.534 18.9599 146.364 19.8399 146.364 21.5199V31.5199H152.83C154.654 31.5199 155.566 32.3999 155.566 34.0799V41.0399H146.364V58.8799C146.364 62.4799 147.607 63.6799 150.426 63.6799C152.25 63.6799 153.908 63.1199 155.401 62.3999ZM190.036 37.1999L187.963 43.2799C184.149 41.1999 180.336 39.9199 175.278 39.9199C171.464 39.9199 169.557 41.1199 169.557 43.1199C169.557 45.0399 171.381 46.3199 178.18 48.1599C187.632 50.7199 191.528 55.5199 191.528 61.8399C191.528 70.2399 185.227 74.08 175.029 74.08C168.397 74.08 162.593 72.3999 158.779 69.5999C157.536 68.7999 157.37 67.68 158.199 66.4799L162.344 60.9599C165.661 63.2799 169.806 64.9599 174.366 64.9599C178.677 64.9599 180.501 63.6799 180.501 61.6799C180.501 59.6799 178.843 57.9999 172.625 56.3999C162.759 53.8399 158.613 50.0799 158.613 43.8399C158.613 35.6799 165.163 31.1199 175.278 31.1199C180.501 31.1199 185.227 32.3999 188.626 34.4799C190.036 35.3599 190.368 36.0799 190.036 37.1999ZM194.492 18.6399H202.452C204.358 18.6399 205.27 19.5199 205.27 21.2799L205.022 52.5599C205.022 57.1199 203.778 59.0399 198.472 58.9599L194.907 58.8799L194.492 18.6399ZM199.798 73.76C196.068 73.76 194.078 71.9999 194.078 68.8799C194.078 65.8399 196.316 63.2799 199.798 63.2799C203.281 63.2799 205.519 65.8399 205.519 68.8799C205.519 71.9999 203.529 73.76 199.798 73.76Z" fill="white"/>
<mask id="mask0_1050_1189" style="mask-type:luminance" maskUnits="userSpaceOnUse" x="10" y="10" width="205" height="73">
<path d="M214.527 10H10.3636V83H214.527V10Z" fill="white"/>
<path d="M52.8131 72.32C48.9992 73.76 45.8487 74.08 41.952 74.08C29.184 74.08 19.2349 68.7999 19.2349 52.6399C19.2349 37.6799 27.6916 31.1199 38.0552 31.1199C47.1752 31.1199 54.4712 36.8799 54.4712 46.2399C54.4712 52.7199 51.2378 56.7199 42.5323 56.9599L29.9301 57.2799C29.9301 61.8399 34.9876 65.1199 42.0349 65.1199C46.2632 65.1199 49.8283 64.3999 52.6472 63.4399L54.1396 70.0799C54.3883 71.2 54.0567 71.84 52.8131 72.32ZM44.9367 45.6799C44.9367 42.5599 42.5323 39.7599 38.2211 39.7599C33.0807 39.7599 29.9301 43.1199 29.9301 49.2799L41.6203 49.1199C43.8589 49.1199 44.9367 48.0799 44.9367 45.6799ZM89.4744 72.32C85.6606 73.76 82.5101 74.08 78.6133 74.08C65.8453 74.08 55.8962 68.7999 55.8962 52.6399C55.8962 37.6799 64.353 31.1199 74.7166 31.1199C83.8366 31.1199 91.1326 36.8799 91.1326 46.2399C91.1326 52.7199 87.8992 56.7199 79.1937 56.9599L66.5915 57.2799C66.5915 61.8399 71.649 65.1199 78.6962 65.1199C82.9246 65.1199 86.4897 64.3999 89.3086 63.4399L90.801 70.0799C91.0497 71.2 90.7181 71.84 89.4744 72.32ZM81.5981 45.6799C81.5981 42.5599 79.1937 39.7599 74.8824 39.7599C69.7421 39.7599 66.5915 43.1199 66.5915 49.2799L78.2817 49.1199C80.5203 49.1199 81.5981 48.0799 81.5981 45.6799ZM110.632 31.1199C120.166 31.1199 127.462 36.4799 127.462 45.6799V67.1999C127.462 71.5199 126.136 73.36 120.083 73.36H118.011V70.5599C115.855 72.7999 111.627 74.08 107.15 74.08C98.9416 74.08 92.6405 70.5599 92.6405 62.3199C92.6405 52.2399 102.009 47.2799 116.85 48.3199V46.8799C116.85 42.5599 113.451 40.4799 109.471 40.4799C105.989 40.4799 103.502 41.9199 100.849 44.4799L95.874 40.7999C94.4645 39.7599 94.2987 38.4799 95.4594 37.2799C99.1903 33.3599 104.248 31.1199 110.632 31.1199ZM116.85 63.9199V55.9999C107.481 55.1199 103.336 57.6799 103.336 61.2799C103.336 64.1599 105.243 65.7599 109.554 65.7599C112.124 65.7599 114.694 65.1999 116.85 63.9199ZM155.401 62.3999L158.22 69.2799C158.717 70.4799 158.385 71.44 156.893 72.16C154.903 73.2 152.333 73.84 149.017 73.84C141.14 73.84 135.585 70.2399 135.585 61.2799V41.0399H131.274C129.533 41.0399 128.621 40.2399 128.621 38.5599V31.5199H135.585V18.9599H143.71C145.534 18.9599 146.364 19.8399 146.364 21.5199V31.5199H152.83C154.654 31.5199 155.566 32.3999 155.566 34.0799V41.0399H146.364V58.8799C146.364 62.4799 147.607 63.6799 150.426 63.6799C152.25 63.6799 153.908 63.1199 155.401 62.3999ZM190.036 37.1999L187.963 43.2799C184.149 41.1999 180.336 39.9199 175.278 39.9199C171.464 39.9199 169.557 41.1199 169.557 43.1199C169.557 45.0399 171.381 46.3199 178.18 48.1599C187.632 50.7199 191.528 55.5199 191.528 61.8399C191.528 70.2399 185.227 74.08 175.029 74.08C168.397 74.08 162.593 72.3999 158.779 69.5999C157.536 68.7999 157.37 67.68 158.199 66.4799L162.344 60.9599C165.661 63.2799 169.806 64.9599 174.366 64.9599C178.677 64.9599 180.501 63.6799 180.501 61.6799C180.501 59.6799 178.843 57.9999 172.625 56.3999C162.759 53.8399 158.613 50.0799 158.613 43.8399C158.613 35.6799 165.163 31.1199 175.278 31.1199C180.501 31.1199 185.227 32.3999 188.626 34.4799C190.036 35.3599 190.368 36.0799 190.036 37.1999ZM194.492 18.6399H202.452C204.358 18.6399 205.27 19.5199 205.27 21.2799L205.022 52.5599C205.022 57.1199 203.778 59.0399 198.472 58.9599L194.907 58.8799L194.492 18.6399ZM199.798 73.76C196.068 73.76 194.078 71.9999 194.078 68.8799C194.078 65.8399 196.316 63.2799 199.798 63.2799C203.281 63.2799 205.519 65.8399 205.519 68.8799C205.519 71.9999 203.529 73.76 199.798 73.76Z" fill="black"/>
</mask>
<g mask="url(#mask0_1050_1189)">
<path d="M52.813 72.3199L55.8342 79.7698L55.8632 79.7589L55.8922 79.7477L52.813 72.3199ZM42.5323 56.9599L42.7505 64.9571L42.7598 64.9569L42.7691 64.9566L42.5323 56.9599ZM29.9301 57.2799L29.712 49.2827L21.6392 49.4877V57.2799H29.9301ZM52.6472 63.4399L60.7498 61.7444L58.7565 52.8757L49.8878 55.896L52.6472 63.4399ZM54.1396 70.0799L62.2464 68.4037L62.2443 68.394L62.2422 68.3844L54.1396 70.0799ZM29.9301 49.2799H21.6392V57.3942L30.0478 57.2791L29.9301 49.2799ZM41.6203 49.1199V41.1199H41.5615L41.5027 41.1207L41.6203 49.1199ZM49.7918 64.87C47.2634 65.8246 45.2296 66.0799 41.9519 66.0799V82.0799C46.4677 82.0799 50.735 81.6952 55.8342 79.7698L49.7918 64.87ZM41.9519 66.0799C36.5602 66.0799 33.1486 64.9387 31.1666 63.3175C29.4452 61.9095 27.5258 59.0912 27.5258 52.6399H10.944C10.944 62.3486 13.9991 70.2503 20.4442 75.5223C26.6288 80.5811 34.5757 82.0799 41.9519 82.0799V66.0799ZM27.5258 52.6399C27.5258 46.5849 29.2177 43.3777 30.8077 41.7409C32.364 40.1388 34.7108 39.1199 38.0552 39.1199V23.1199C31.036 23.1199 23.9726 25.381 18.7096 30.7989C13.4804 36.1821 10.944 43.7349 10.944 52.6399H27.5258ZM38.0552 39.1199C40.826 39.1199 42.852 39.9851 44.0944 41.0791C45.251 42.0976 46.1803 43.6936 46.1803 46.2399H62.7621C62.7621 39.4262 60.0434 33.4622 55.272 29.2607C50.5864 25.1347 44.4044 23.1199 38.0552 23.1199V39.1199ZM46.1803 46.2399C46.1803 48.2947 45.6721 48.5078 45.8878 48.2985C46.0606 48.1308 45.5023 48.8748 42.2955 48.9632L42.7691 64.9566C48.2677 64.805 53.6789 63.429 57.6448 59.5813C61.6536 55.692 62.7621 50.6651 62.7621 46.2399H46.1803ZM42.3141 48.9627L29.712 49.2827L30.1483 65.2771L42.7505 64.9571L42.3141 48.9627ZM21.6392 57.2799C21.6392 62.7617 24.7828 67.0019 28.7178 69.5515C32.537 72.026 37.2786 73.1199 42.0349 73.1199V57.1199C39.7439 57.1199 38.4331 56.5738 37.9617 56.2683C37.7528 56.133 37.8236 56.1238 37.958 56.342C38.1122 56.5925 38.221 56.9387 38.221 57.2799H21.6392ZM42.0349 73.1199C47.2478 73.1199 51.7444 72.231 55.4066 70.9838L49.8878 55.896C47.9122 56.5688 45.2787 57.1199 42.0349 57.1199V73.1199ZM44.5446 65.1354L46.037 71.7754L62.2422 68.3844L60.7498 61.7444L44.5446 65.1354ZM46.0327 71.7561C45.9598 71.4277 45.6054 69.6094 46.7883 67.5548C47.9231 65.584 49.5901 64.9475 49.7339 64.8921L55.8922 79.7477C57.2795 79.2123 59.7343 78.0158 61.2835 75.325C62.881 72.5504 62.5681 69.8521 62.2464 68.4037L46.0327 71.7561ZM53.2276 45.6799C53.2276 42.1264 51.8433 38.556 49.0313 35.8673C46.1695 33.131 42.3122 31.7599 38.221 31.7599V47.7599C38.3629 47.7599 38.2956 47.7813 38.0912 47.7048C37.8829 47.6269 37.6161 47.4776 37.3598 47.2325C36.8279 46.7238 36.6458 46.1134 36.6458 45.6799H53.2276ZM38.221 31.7599C33.6682 31.7599 29.1225 33.3231 25.853 37.0036C22.7344 40.5143 21.6392 44.9823 21.6392 49.2799H38.221C38.221 47.4175 38.7012 47.1255 38.4429 47.4162C38.3067 47.5694 38.119 47.6958 37.9582 47.7608C37.8216 47.8159 37.8713 47.7599 38.221 47.7599V31.7599ZM30.0478 57.2791L41.7379 57.1191L41.5027 41.1207L29.8125 41.2807L30.0478 57.2791ZM41.6203 57.1199C43.9393 57.1199 47.412 56.5798 50.1395 53.799C52.7721 51.1151 53.2276 47.8341 53.2276 45.6799H36.6458C36.6458 45.9257 36.5623 44.3647 38.0964 42.8008C39.7253 41.14 41.5399 41.1199 41.6203 41.1199V57.1199ZM89.4744 72.3199L92.4956 79.7698L92.5246 79.7589L92.5535 79.7477L89.4744 72.3199ZM79.1936 56.9599L79.4118 64.9571L79.4211 64.9569L79.4305 64.9566L79.1936 56.9599ZM66.5915 57.2799L66.3733 49.2827L58.3006 49.4877V57.2799H66.5915ZM89.3085 63.4399L97.4111 61.7444L95.4178 52.8757L86.5491 55.896L89.3085 63.4399ZM90.8009 70.0799L98.9078 68.4037L98.9057 68.394L98.9035 68.3844L90.8009 70.0799ZM66.5915 49.2799H58.3006V57.3942L66.7091 57.2791L66.5915 49.2799ZM78.2816 49.1199V41.1199H78.2229L78.164 41.1207L78.2816 49.1199ZM86.4532 64.87C83.9247 65.8246 81.891 66.0799 78.6133 66.0799V82.0799C83.129 82.0799 87.3963 81.6952 92.4956 79.7698L86.4532 64.87ZM78.6133 66.0799C73.2215 66.0799 69.8099 64.9387 67.8279 63.3175C66.1065 61.9095 64.1871 59.0912 64.1871 52.6399H47.6053C47.6053 62.3486 50.6604 70.2503 57.1055 75.5223C63.2901 80.5811 71.2371 82.0799 78.6133 82.0799V66.0799ZM64.1871 52.6399C64.1871 46.5849 65.8791 43.3777 67.4691 41.7409C69.0254 40.1388 71.3721 39.1199 74.7166 39.1199V23.1199C67.6974 23.1199 60.6339 25.381 55.371 30.7989C50.1417 36.1821 47.6053 43.7349 47.6053 52.6399H64.1871ZM74.7166 39.1199C77.4874 39.1199 79.5134 39.9851 80.7558 41.0791C81.9123 42.0976 82.8416 43.6936 82.8416 46.2399H99.4234C99.4234 39.4262 96.7048 33.4622 91.9333 29.2607C87.2477 25.1347 81.0657 23.1199 74.7166 23.1199V39.1199ZM82.8416 46.2399C82.8416 48.2947 82.3334 48.5078 82.5492 48.2985C82.7219 48.1308 82.1637 48.8748 78.9568 48.9632L79.4305 64.9566C84.9291 64.805 90.3402 63.429 94.3061 59.5813C98.3149 55.692 99.4234 50.6651 99.4234 46.2399H82.8416ZM78.9755 48.9627L66.3733 49.2827L66.8096 65.2771L79.4118 64.9571L78.9755 48.9627ZM58.3006 57.2799C58.3006 62.7617 61.4442 67.0019 65.3791 69.5515C69.1983 72.026 73.9399 73.1199 78.6962 73.1199V57.1199C76.4052 57.1199 75.0944 56.5738 74.6231 56.2683C74.4141 56.133 74.4849 56.1238 74.6193 56.342C74.7735 56.5925 74.8824 56.9387 74.8824 57.2799H58.3006ZM78.6962 73.1199C83.9091 73.1199 88.4058 72.231 92.068 70.9838L86.5491 55.896C84.5735 56.5688 81.94 57.1199 78.6962 57.1199V73.1199ZM81.2059 65.1354L82.6983 71.7754L98.9035 68.3844L97.4111 61.7444L81.2059 65.1354ZM82.6941 71.7561C82.6211 71.4277 82.2668 69.6094 83.4497 67.5548C84.5844 65.584 86.2515 64.9475 86.3952 64.8921L92.5535 79.7477C93.9409 79.2123 96.3956 78.0158 97.9449 75.325C99.5423 72.5504 99.2294 69.8521 98.9078 68.4037L82.6941 71.7561ZM89.8889 45.6799C89.8889 42.1264 88.5046 38.556 85.6927 35.8673C82.8309 33.131 78.9735 31.7599 74.8824 31.7599V47.7599C75.0242 47.7599 74.9569 47.7813 74.7525 47.7048C74.5442 47.6269 74.2774 47.4776 74.0212 47.2325C73.4892 46.7238 73.3071 46.1134 73.3071 45.6799H89.8889ZM74.8824 31.7599C70.3295 31.7599 65.7838 33.3231 62.5143 37.0036C59.3957 40.5143 58.3006 44.9823 58.3006 49.2799H74.8824C74.8824 47.4175 75.3625 47.1255 75.1043 47.4162C74.9681 47.5694 74.7803 47.6958 74.6196 47.7608C74.483 47.8159 74.5326 47.7599 74.8824 47.7599V31.7599ZM66.7091 57.2791L78.3993 57.1191L78.164 41.1207L66.4738 41.2807L66.7091 57.2791ZM78.2816 57.1199C80.6006 57.1199 84.0734 56.5798 86.8009 53.799C89.4334 51.1151 89.8889 47.8341 89.8889 45.6799H73.3071C73.3071 45.9257 73.2237 44.3647 74.7577 42.8008C76.3867 41.14 78.2012 41.1199 78.2816 41.1199V57.1199ZM118.011 73.3599H109.72V81.3599H118.011V73.3599ZM118.011 70.5599H126.302V50.1876L111.935 65.1163L118.011 70.5599ZM116.85 48.3199L116.25 56.2989L125.141 56.922V48.3199H116.85ZM100.848 44.4799L95.8039 50.8287L101.572 55.0956L106.711 50.1368L100.848 44.4799ZM95.8739 40.7999L100.918 34.451L100.91 34.445L95.8739 40.7999ZM95.4594 37.2799L101.52 42.7384L101.543 42.7149L101.566 42.6911L95.4594 37.2799ZM116.85 63.9199L121.195 70.7332L125.141 68.3903V63.9199H116.85ZM116.85 55.9999H125.141V48.7408L117.653 48.0375L116.85 55.9999ZM110.632 39.1199C113.847 39.1199 116.013 40.0211 117.232 41.0284C118.309 41.9172 119.171 43.2897 119.171 45.6799H135.753C135.753 38.8701 132.967 32.9626 128.013 28.8714C123.201 24.8987 116.951 23.1199 110.632 23.1199V39.1199ZM119.171 45.6799V67.1999H135.753V45.6799H119.171ZM119.171 67.1999C119.171 67.9661 119.102 68.0917 119.158 67.8936C119.195 67.761 119.285 67.4916 119.481 67.1527C119.684 66.8016 119.964 66.4378 120.325 66.1068C121.069 65.4224 121.735 65.2544 121.742 65.2529C121.743 65.2525 121.711 65.2604 121.64 65.272C121.568 65.2835 121.464 65.2977 121.322 65.3113C121.033 65.3388 120.63 65.3599 120.083 65.3599V81.3599C123.431 81.3599 128.19 80.9741 131.76 77.693C135.511 74.2468 135.753 69.6588 135.753 67.1999H119.171ZM120.083 65.3599H118.011V81.3599H120.083V65.3599ZM126.302 73.3599V70.5599H109.72V73.3599H126.302ZM111.935 65.1163C112.099 64.9453 111.885 65.2346 110.855 65.5621C109.897 65.8668 108.607 66.0799 107.15 66.0799V82.0799C112.696 82.0799 119.682 80.5794 124.086 76.0035L111.935 65.1163ZM107.15 66.0799C104.108 66.0799 102.494 65.4056 101.838 64.9235C101.561 64.7201 101.395 64.5169 101.268 64.2546C101.132 63.972 100.931 63.3875 100.931 62.3199H84.3495C84.3495 68.6447 86.9038 74.0639 91.7963 77.6563C96.3422 80.9942 101.983 82.0799 107.15 82.0799V66.0799ZM100.931 62.3199C100.931 60.1265 101.707 58.9921 103.367 58.0546C105.548 56.823 109.693 55.8394 116.25 56.2989L117.45 40.3409C109.166 39.7604 101.206 40.7368 94.9925 44.2452C88.2583 48.0477 84.3495 54.4333 84.3495 62.3199H100.931ZM125.141 48.3199V46.8799H108.559V48.3199H125.141ZM125.141 46.8799C125.141 42.4827 123.3 38.5415 119.893 35.8597C116.709 33.3551 112.853 32.4799 109.471 32.4799V48.4799C110.069 48.4799 109.902 48.6447 109.413 48.26C109.143 48.0475 108.888 47.7439 108.719 47.3883C108.553 47.0397 108.559 46.827 108.559 46.8799H125.141ZM109.471 32.4799C102.956 32.4799 98.4835 35.4482 94.9858 38.823L106.711 50.1368C107.705 49.1779 108.285 48.8085 108.6 48.6539C108.809 48.5522 109.013 48.4799 109.471 48.4799V32.4799ZM105.892 38.131L100.918 34.451L90.8294 47.1487L95.8039 50.8287L105.892 38.131ZM100.91 34.445C101.291 34.7257 102.663 35.9019 102.938 38.1729C103.228 40.5709 102.061 42.1794 101.52 42.7384L89.3983 31.8213C87.6968 33.5804 86.0327 36.4289 86.4678 40.0269C86.8874 43.4979 89.0478 45.8341 90.8376 47.1548L100.91 34.445ZM101.566 42.6911C103.665 40.4854 106.477 39.1199 110.632 39.1199V23.1199C102.019 23.1199 94.7153 26.2344 89.3529 31.8687L101.566 42.6911ZM125.141 63.9199V55.9999H108.559V63.9199H125.141ZM117.653 48.0375C112.304 47.5351 107.231 47.8642 103.114 49.6922C98.51 51.7363 95.0448 55.8164 95.0448 61.2799H111.627C111.627 61.9343 111.412 62.7286 110.906 63.421C110.437 64.0645 109.985 64.2542 110.045 64.2276C110.127 64.1912 110.596 64.0104 111.649 63.9038C112.687 63.799 114.13 63.7822 116.047 63.9623L117.653 48.0375ZM95.0448 61.2799C95.0448 64.5525 96.2345 68.293 99.7472 70.9217C102.853 73.2458 106.571 73.7599 109.554 73.7599V57.7599C108.98 57.7599 108.776 57.7039 108.831 57.7175C108.898 57.7343 109.345 57.856 109.909 58.2781C110.517 58.733 111.017 59.3566 111.323 60.0475C111.608 60.6885 111.627 61.1607 111.627 61.2799H95.0448ZM109.554 73.7599C113.31 73.7599 117.464 72.9483 121.195 70.7332L112.504 57.1066C111.924 57.4515 110.938 57.7599 109.554 57.7599V73.7599ZM155.4 62.3999L163.111 59.4586L159.784 51.3405L151.692 55.2445L155.4 62.3999ZM158.219 69.2799L150.509 72.2212L150.515 72.2361L150.521 72.251L158.219 69.2799ZM156.893 72.1599L153.185 65.0045L153.064 65.0631L152.944 65.1256L156.893 72.1599ZM135.585 41.0399H143.876V33.0399H135.585V41.0399ZM128.621 31.5199V23.5199H120.33V31.5199H128.621ZM135.585 31.5199V39.5199H143.876V31.5199H135.585ZM135.585 18.9599V10.9599H127.294V18.9599H135.585ZM146.363 31.5199H138.073V39.5199H146.363V31.5199ZM155.566 41.0399V49.0399H163.857V41.0399H155.566ZM146.363 41.0399V33.0399H138.073V41.0399H146.363ZM147.69 65.3412L150.509 72.2212L165.93 66.3386L163.111 59.4586L147.69 65.3412ZM150.521 72.251C150.263 71.6281 149.756 69.8903 150.65 67.823C151.49 65.8745 152.945 65.1203 153.185 65.0045L160.601 79.3153C162.333 78.4795 164.7 76.8853 165.956 73.9768C167.263 70.9495 166.673 68.1317 165.918 66.3088L150.521 72.251ZM152.944 65.1256C152.377 65.4216 151.216 65.8399 149.017 65.8399V81.8399C153.45 81.8399 157.429 80.9782 160.841 79.1942L152.944 65.1256ZM149.017 65.8399C146.245 65.8399 145.154 65.1948 144.832 64.9204C144.697 64.8057 143.876 64.1217 143.876 61.2799H127.294C127.294 67.3981 129.251 72.9941 133.863 76.9194C138.287 80.685 143.911 81.8399 149.017 81.8399V65.8399ZM143.876 61.2799V41.0399H127.294V61.2799H143.876ZM135.585 33.0399H131.274V49.0399H135.585V33.0399ZM131.274 33.0399C131.583 33.0399 133.347 33.1043 135.016 34.64C136.759 36.2437 136.912 38.0694 136.912 38.5599H120.33C120.33 40.7304 120.939 43.7961 123.574 46.2198C126.134 48.5755 129.224 49.0399 131.274 49.0399V33.0399ZM136.912 38.5599V31.5199H120.33V38.5599H136.912ZM128.621 39.5199H135.585V23.5199H128.621V39.5199ZM143.876 31.5199V18.9599H127.294V31.5199H143.876ZM135.585 26.9599H143.71V10.9599H135.585V26.9599ZM143.71 26.9599C143.346 26.9599 141.475 26.8649 139.79 25.1998C138.14 23.5701 138.073 21.8171 138.073 21.5199H154.654C154.654 19.5427 154.172 16.5097 151.652 14.02C149.096 11.4949 145.899 10.9599 143.71 10.9599V26.9599ZM138.073 21.5199V31.5199H154.654V21.5199H138.073ZM146.363 39.5199H152.83V23.5199H146.363V39.5199ZM152.83 39.5199C152.463 39.5199 150.717 39.4276 149.088 37.8914C147.425 36.3235 147.275 34.5684 147.275 34.0799H163.857C163.857 31.9114 163.252 28.8763 160.678 26.4484C158.136 24.0522 155.021 23.5199 152.83 23.5199V39.5199ZM147.275 34.0799V41.0399H163.857V34.0799H147.275ZM155.566 33.0399H146.363V49.0399H155.566V33.0399ZM138.073 41.0399V58.8799H154.654V41.0399H138.073ZM138.073 58.8799C138.073 61.182 138.384 64.8308 141.031 67.8229C143.995 71.1745 147.991 71.6799 150.426 71.6799V55.6799C150.043 55.6799 152.007 55.5853 153.645 57.4369C154.34 58.2237 154.578 58.946 154.644 59.2047C154.703 59.4308 154.654 59.3825 154.654 58.8799H138.073ZM150.426 71.6799C154.028 71.6799 157.004 70.5709 159.109 69.5553L151.692 55.2445C150.814 55.6689 150.473 55.6799 150.426 55.6799V71.6799ZM190.036 37.1999L197.911 39.6997L197.962 39.5496L198.007 39.3977L190.036 37.1999ZM187.963 43.2799L183.883 50.2444L192.681 55.0425L195.838 45.7797L187.963 43.2799ZM178.18 48.1599L180.42 40.4576L180.418 40.4572L178.18 48.1599ZM158.779 69.5999L163.799 63.2333L163.593 63.082L163.377 62.9435L158.779 69.5999ZM158.199 66.4799L151.485 61.7857L151.39 61.9123L151.3 62.0423L158.199 66.4799ZM162.344 60.9599L167.21 54.483L160.496 49.7862L155.631 56.2657L162.344 60.9599ZM172.625 56.3999L170.471 64.1255L170.48 64.1276L170.488 64.1298L172.625 56.3999ZM188.626 34.4799L193.13 27.7633L193.098 27.7434L193.066 27.7238L188.626 34.4799ZM182.159 34.7001L180.087 40.7801L195.838 45.7797L197.911 39.6997L182.159 34.7001ZM192.042 36.3154C187.259 33.7069 182.051 31.9199 175.278 31.9199V47.9199C178.619 47.9199 181.038 48.6929 183.883 50.2444L192.042 36.3154ZM175.278 31.9199C172.691 31.9199 169.528 32.2905 166.733 33.9034C163.416 35.817 161.266 39.1515 161.266 43.1199H177.848C177.848 43.8874 177.651 44.8567 177.073 45.8112C176.504 46.7511 175.779 47.3267 175.241 47.6364C174.352 48.1493 174.05 47.9199 175.278 47.9199V31.9199ZM161.266 43.1199C161.266 44.9348 161.732 46.9082 162.961 48.7654C164.107 50.4957 165.607 51.6569 166.914 52.4478C169.326 53.9069 172.514 54.9354 175.94 55.8626L180.418 40.4572C178.845 40.0314 177.704 39.6761 176.881 39.3776C176.476 39.2308 176.185 39.1109 175.984 39.0199C175.781 38.9278 175.707 38.8824 175.723 38.892C175.725 38.8929 176.343 39.2591 176.935 40.1519C177.61 41.1716 177.848 42.265 177.848 43.1199H161.266ZM175.938 55.8622C179.734 56.8903 181.472 58.1243 182.236 58.943C182.853 59.6037 183.237 60.4003 183.237 61.8399H199.819C199.819 56.9595 198.254 52.1961 194.559 48.2368C191.012 44.4355 186.076 41.9895 180.42 40.4576L175.938 55.8622ZM183.237 61.8399C183.237 62.9717 183.027 63.5913 182.879 63.8957C182.746 64.1696 182.562 64.403 182.21 64.6512C181.36 65.2501 179.259 66.0799 175.029 66.0799V82.0799C180.997 82.0799 187.144 80.9897 191.994 77.5686C197.28 73.8415 199.819 68.2132 199.819 61.8399H183.237ZM175.029 66.0799C169.67 66.0799 165.792 64.6967 163.799 63.2333L153.758 75.9665C159.393 80.1031 167.122 82.0799 175.029 82.0799V66.0799ZM163.377 62.9435C164.106 63.4123 165.498 64.6523 165.885 66.8506C166.253 68.9462 165.441 70.4196 165.097 70.9175L151.3 62.0423C150.126 63.7402 148.982 66.3736 149.537 69.5292C150.111 72.7875 152.207 74.9875 154.18 76.2563L163.377 62.9435ZM164.911 71.1741L169.057 65.6541L155.631 56.2657L151.485 61.7857L164.911 71.1741ZM157.477 67.4368C161.856 70.5002 167.667 72.9599 174.366 72.9599V56.9599C171.944 56.9599 169.464 56.0596 167.21 54.483L157.477 67.4368ZM174.366 72.9599C177.123 72.9599 180.413 72.5926 183.283 70.9487C186.761 68.9562 188.792 65.5398 188.792 61.6799H172.21C172.21 60.9745 172.382 60.0226 172.955 59.0577C173.526 58.0961 174.267 57.5058 174.817 57.1911C175.321 56.9022 175.625 56.8629 175.504 56.8865C175.394 56.9079 175.041 56.9599 174.366 56.9599V72.9599ZM188.792 61.6799C188.792 57.9132 186.935 54.7278 183.896 52.5099C181.396 50.684 178.159 49.5446 174.761 48.67L170.488 64.1298C171.803 64.468 172.701 64.7664 173.291 65.0041C173.899 65.2481 174.02 65.3633 173.892 65.2699C173.734 65.1541 173.234 64.7455 172.805 63.9582C172.354 63.1303 172.21 62.3039 172.21 61.6799H188.792ZM174.777 48.6743C170.346 47.5245 168.38 46.3742 167.569 45.6461C167.241 45.3501 167.134 45.153 167.079 45.0249C167.016 44.8767 166.904 44.5347 166.904 43.8399H150.322C150.322 48.9509 152.148 53.651 156.268 57.3537C159.997 60.7056 165.037 62.7153 170.471 64.1255L174.777 48.6743ZM166.904 43.8399C166.904 42.0584 167.494 41.292 168.216 40.7542C169.213 40.012 171.382 39.1199 175.278 39.1199V23.1199C169.058 23.1199 162.894 24.5078 158.088 28.0856C153.007 31.8678 150.322 37.4614 150.322 43.8399H166.904ZM175.278 39.1199C179.197 39.1199 182.325 40.0974 184.185 41.236L193.066 27.7238C188.128 24.7024 181.804 23.1199 175.278 23.1199V39.1199ZM184.121 41.1965C184.412 41.3779 183.314 40.8016 182.534 39.2606C181.557 37.3321 181.884 35.6084 182.063 35.0021L198.007 39.3977C198.518 37.6714 198.845 35.0277 197.433 32.2392C196.218 29.8382 194.249 28.4619 193.13 27.7633L184.121 41.1965ZM194.492 18.6399V10.6399H186.118L186.201 18.7194L194.492 18.6399ZM205.27 21.2799L213.56 21.3413L213.561 21.3106V21.2799H205.27ZM205.022 52.5599L196.731 52.4985V52.5292V52.5599H205.022ZM198.472 58.9599L198.279 66.9577L198.31 66.9584L198.342 66.9589L198.472 58.9599ZM194.907 58.8799L186.616 58.9594L186.696 66.6978L194.714 66.8777L194.907 58.8799ZM194.492 26.6399H202.451V10.6399H194.492V26.6399ZM202.451 26.6399C202.218 26.6399 200.444 26.5911 198.78 25.02C197.078 23.4149 196.979 21.6333 196.979 21.2799H213.561C213.561 19.1665 213.006 16.0649 210.371 13.5798C207.774 11.1287 204.59 10.6399 202.451 10.6399V26.6399ZM196.979 21.2185L196.731 52.4985L213.311 52.6213L213.56 21.3413L196.979 21.2185ZM196.731 52.5599C196.731 53.4202 196.663 53.7025 196.673 53.6666C196.695 53.5705 196.883 52.885 197.586 52.1356C198.324 51.3476 199.113 51.0379 199.437 50.948C199.652 50.8879 199.477 50.9741 198.6 50.9609L198.342 66.9589C201.593 67.0079 206.41 66.5759 209.886 62.8642C213.129 59.4026 213.312 54.9846 213.312 52.5599H196.731ZM198.663 50.9621L195.098 50.8821L194.714 66.8777L198.279 66.9577L198.663 50.9621ZM203.197 58.8004L202.782 18.5604L186.201 18.7194L186.616 58.9594L203.197 58.8004ZM199.798 65.7599C199.171 65.7599 199.998 65.6079 201.059 66.5213C201.59 66.9785 201.958 67.5272 202.167 68.0435C202.363 68.5277 202.368 68.8487 202.368 68.8799H185.787C185.787 72.1274 186.88 75.7567 190.018 78.4585C193.006 81.0319 196.693 81.7599 199.798 81.7599V65.7599ZM202.368 68.8799C202.368 69.2504 202.223 69.8549 201.669 70.4228C201.054 71.0528 200.28 71.2799 199.798 71.2799V55.2799C191.27 55.2799 185.787 61.8855 185.787 68.8799H202.368ZM199.798 71.2799C199.315 71.2799 198.541 71.0528 197.927 70.4228C197.372 69.8549 197.228 69.2504 197.228 68.8799H213.81C213.81 61.8855 208.325 55.2799 199.798 55.2799V71.2799ZM197.228 68.8799C197.228 68.8487 197.232 68.5277 197.428 68.0435C197.637 67.5272 198.005 66.9785 198.537 66.5213C199.597 65.6079 200.424 65.7599 199.798 65.7599V81.7599C202.902 81.7599 206.59 81.0319 209.577 78.4585C212.716 75.7567 213.81 72.1274 213.81 68.8799H197.228Z" fill="#FF3B18"/>
</g>
</svg>
