<svg width="216" height="78" viewBox="0 0 216 78" fill="none" xmlns="http://www.w3.org/2000/svg">
<mask id="mask0_35_130" style="mask-type:luminance" maskUnits="userSpaceOnUse" x="0" y="0" width="216" height="78">
<path d="M215.818 0.5H0.90918V77.15H215.818V0.5Z" fill="white"/>
<path d="M45.593 65.936C41.5785 67.448 38.2621 67.784 34.1603 67.784C20.7203 67.784 10.2476 62.24 10.2476 45.272C10.2476 29.564 19.1494 22.676 30.0585 22.676C39.6585 22.676 47.3385 28.724 47.3385 38.552C47.3385 45.356 43.9348 49.556 34.7712 49.808L21.5057 50.144C21.5057 54.932 26.8294 58.376 34.2476 58.376C38.6985 58.376 42.4512 57.62 45.4185 56.612L46.9894 63.584C47.2512 64.76 46.9021 65.432 45.593 65.936ZM37.3021 37.964C37.3021 34.688 34.7712 31.748 30.233 31.748C24.8221 31.748 21.5057 35.276 21.5057 41.744L33.8112 41.576C36.1676 41.576 37.3021 40.484 37.3021 37.964ZM84.1839 65.936C80.1694 67.448 76.853 67.784 72.7512 67.784C59.3112 67.784 48.8385 62.24 48.8385 45.272C48.8385 29.564 57.7403 22.676 68.6494 22.676C78.2494 22.676 85.9294 28.724 85.9294 38.552C85.9294 45.356 82.5257 49.556 73.3621 49.808L60.0966 50.144C60.0966 54.932 65.4203 58.376 72.8385 58.376C77.2894 58.376 81.0421 57.62 84.0094 56.612L85.5803 63.584C85.8421 64.76 85.493 65.432 84.1839 65.936ZM75.893 37.964C75.893 34.688 73.3621 31.748 68.8239 31.748C63.413 31.748 60.0966 35.276 60.0966 41.744L72.4021 41.576C74.7585 41.576 75.893 40.484 75.893 37.964ZM106.455 22.676C116.491 22.676 124.171 28.304 124.171 37.964V60.56C124.171 65.096 122.775 67.028 116.404 67.028H114.222V64.088C111.953 66.44 107.502 67.784 102.789 67.784C94.1494 67.784 87.5166 64.088 87.5166 55.436C87.5166 44.852 97.3785 39.644 113 40.736V39.224C113 34.688 109.422 32.504 105.233 32.504C101.568 32.504 98.9494 34.016 96.1566 36.704L90.9203 32.84C89.4366 31.748 89.2621 30.404 90.4839 29.144C94.4112 25.028 99.7348 22.676 106.455 22.676ZM113 57.116V48.8C103.138 47.876 98.7748 50.564 98.7748 54.344C98.7748 57.368 100.782 59.048 105.32 59.048C108.026 59.048 110.731 58.46 113 57.116ZM153.58 55.52L156.547 62.744C157.071 64.004 156.722 65.012 155.151 65.768C153.056 66.86 150.351 67.532 146.86 67.532C138.569 67.532 132.722 63.752 132.722 54.344V33.092H128.184C126.351 33.092 125.391 32.252 125.391 30.488V23.096H132.722V9.90802H141.274C143.194 9.90802 144.067 10.832 144.067 12.596V23.096H150.874C152.794 23.096 153.754 24.02 153.754 25.784V33.092H144.067V51.824C144.067 55.604 145.376 56.864 148.344 56.864C150.264 56.864 152.009 56.276 153.58 55.52ZM190.038 29.06L187.856 35.444C183.842 33.26 179.827 31.916 174.504 31.916C170.489 31.916 168.482 33.176 168.482 35.276C168.482 37.292 170.402 38.636 177.558 40.568C187.507 43.256 191.609 48.296 191.609 54.932C191.609 63.752 184.976 67.784 174.242 67.784C167.26 67.784 161.151 66.02 157.136 63.08C155.827 62.24 155.653 61.064 156.525 59.804L160.889 54.008C164.38 56.444 168.744 58.208 173.544 58.208C178.082 58.208 180.002 56.864 180.002 54.764C180.002 52.664 178.256 50.9 171.711 49.22C161.325 46.532 156.962 42.584 156.962 36.032C156.962 27.464 163.856 22.676 174.504 22.676C180.002 22.676 184.976 24.02 188.554 26.204C190.038 27.128 190.387 27.884 190.038 29.06ZM194.729 9.57202H203.107C205.114 9.57202 206.074 10.496 206.074 12.344L205.813 45.188C205.813 49.976 204.504 51.992 198.918 51.908L195.165 51.824L194.729 9.57202ZM200.314 67.448C196.387 67.448 194.293 65.6 194.293 62.324C194.293 59.132 196.649 56.444 200.314 56.444C203.98 56.444 206.336 59.132 206.336 62.324C206.336 65.6 204.242 67.448 200.314 67.448Z" fill="black"/>
</mask>
<g mask="url(#mask0_35_130)">
<path d="M45.5927 65.9361L48.773 73.7585L48.8035 73.7471L48.8339 73.7353L45.5927 65.9361ZM34.7709 49.8081L35.0006 58.2052L35.0104 58.205L35.0202 58.2047L34.7709 49.8081ZM21.5055 50.1441L21.2758 41.7471L12.7782 41.9623V50.1441H21.5055ZM45.4182 56.6121L53.9473 54.8318L51.849 45.5197L42.5135 48.691L45.4182 56.6121ZM46.9891 63.5841L55.5226 61.8241L55.5205 61.8139L55.5182 61.8038L46.9891 63.5841ZM21.5055 41.7441H12.7782V50.2641L21.6293 50.1433L21.5055 41.7441ZM33.8109 41.5761V33.1761H33.7491L33.6871 33.177L33.8109 41.5761ZM42.4125 58.1137C39.751 59.1161 37.6102 59.3841 34.16 59.3841V76.1841C38.9134 76.1841 43.4054 75.7802 48.773 73.7585L42.4125 58.1137ZM34.16 59.3841C28.4845 59.3841 24.8933 58.1859 22.807 56.4836C20.995 55.0052 18.9746 52.046 18.9746 45.2721H1.52002C1.52002 55.4663 4.73591 63.763 11.5203 69.2986C18.0304 74.6104 26.3956 76.1841 34.16 76.1841V59.3841ZM18.9746 45.2721C18.9746 38.9144 20.7556 35.5468 22.4293 33.8282C24.0675 32.146 26.5377 31.0761 30.0582 31.0761V14.2761C22.6696 14.2761 15.2344 16.6503 9.69442 22.3391C4.18991 27.9914 1.52002 35.9219 1.52002 45.2721H18.9746ZM30.0582 31.0761C32.9749 31.0761 35.1075 31.9846 36.4153 33.1333C37.6327 34.2027 38.6109 35.8785 38.6109 38.5521H56.0655C56.0655 31.3977 53.2037 25.1355 48.1811 20.724C43.2489 16.3917 36.7415 14.2761 30.0582 14.2761V31.0761ZM38.6109 38.5521C38.6109 40.7097 38.0759 40.9334 38.3031 40.7136C38.4849 40.5376 37.8973 41.3188 34.5217 41.4116L35.0202 58.2047C40.8082 58.0455 46.5042 56.6007 50.6788 52.5606C54.8986 48.4768 56.0655 43.1986 56.0655 38.5521H38.6109ZM34.5413 41.4111L21.2758 41.7471L21.7351 58.5412L35.0006 58.2052L34.5413 41.4111ZM12.7782 50.1441C12.7782 55.9 16.0873 60.3522 20.2293 63.0293C24.2495 65.6275 29.2407 66.7761 34.2473 66.7761V49.9761C31.8357 49.9761 30.4559 49.4027 29.9598 49.0819C29.7399 48.9399 29.8144 48.9302 29.9559 49.1593C30.1182 49.4223 30.2327 49.7859 30.2327 50.1441H12.7782ZM34.2473 66.7761C39.7346 66.7761 44.4679 65.8428 48.3229 64.5332L42.5135 48.691C40.4339 49.3975 37.6618 49.9761 34.2473 49.9761V66.7761ZM36.8891 58.3924L38.4601 65.3644L55.5182 61.8038L53.9473 54.8318L36.8891 58.3924ZM38.4556 65.3441C38.3788 64.9993 38.0058 63.0901 39.251 60.9328C40.4454 58.8634 42.2002 58.1951 42.3515 58.1369L48.8339 73.7353C50.2943 73.1731 52.8783 71.9168 54.5091 69.0915C56.1906 66.1781 55.8613 63.3449 55.5226 61.8241L38.4556 65.3441ZM46.0291 37.9641C46.0291 34.2329 44.572 30.484 41.612 27.6609C38.5996 24.7878 34.5392 23.3481 30.2327 23.3481V40.1481C30.3821 40.1481 30.3112 40.1706 30.0961 40.0903C29.8768 40.0085 29.596 39.8517 29.3262 39.5943C28.7662 39.0602 28.5746 38.4193 28.5746 37.9641H46.0291ZM30.2327 23.3481C25.4403 23.3481 20.6553 24.9895 17.2137 28.854C13.931 32.5402 12.7782 37.2316 12.7782 41.7441H30.2327C30.2327 39.7886 30.7382 39.482 30.4663 39.7872C30.323 39.9481 30.1253 40.0808 29.9561 40.1491C29.8123 40.2069 29.8646 40.1481 30.2327 40.1481V23.3481ZM21.6293 50.1433L33.9347 49.9753L33.6871 33.177L21.3817 33.345L21.6293 50.1433ZM33.8109 49.9761C36.2519 49.9761 39.9075 49.409 42.7785 46.4892C45.5497 43.6711 46.0291 40.226 46.0291 37.9641H28.5746C28.5746 38.2222 28.4867 36.5832 30.1015 34.9411C31.8162 33.1972 33.7263 33.1761 33.8109 33.1761V49.9761ZM84.1837 65.9361L87.3639 73.7585L87.3944 73.7471L87.4249 73.7353L84.1837 65.9361ZM73.3618 49.8081L73.5915 58.2052L73.6013 58.205L73.6111 58.2047L73.3618 49.8081ZM60.0964 50.1441L59.8667 41.7471L51.3691 41.9623V50.1441H60.0964ZM84.0091 56.6121L92.5382 54.8318L90.4399 45.5197L81.1045 48.691L84.0091 56.6121ZM85.58 63.5841L94.1136 61.8241L94.1114 61.8139L94.1091 61.8038L85.58 63.5841ZM60.0964 41.7441H51.3691V50.2641L60.2202 50.1433L60.0964 41.7441ZM72.4018 41.5761V33.1761H72.34L72.278 33.177L72.4018 41.5761ZM81.0034 58.1137C78.3419 59.1161 76.2012 59.3841 72.7509 59.3841V76.1841C77.5044 76.1841 81.9963 75.7802 87.3639 73.7585L81.0034 58.1137ZM72.7509 59.3841C67.0754 59.3841 63.4842 58.1859 61.3979 56.4836C59.5859 55.0052 57.5655 52.046 57.5655 45.2721H40.1109C40.1109 55.4663 43.3268 63.763 50.1112 69.2986C56.6213 74.6104 64.9865 76.1841 72.7509 76.1841V59.3841ZM57.5655 45.2721C57.5655 38.9144 59.3465 35.5468 61.0202 33.8282C62.6584 32.146 65.1286 31.0761 68.6491 31.0761V14.2761C61.2605 14.2761 53.8253 16.6503 48.2853 22.3391C42.7808 27.9914 40.1109 35.9219 40.1109 45.2721H57.5655ZM68.6491 31.0761C71.5658 31.0761 73.6984 31.9846 75.0062 33.1333C76.2236 34.2027 77.2018 35.8785 77.2018 38.5521H94.6564C94.6564 31.3977 91.7946 25.1355 86.7721 20.724C81.8398 16.3917 75.3325 14.2761 68.6491 14.2761V31.0761ZM77.2018 38.5521C77.2018 40.7097 76.6669 40.9334 76.894 40.7136C77.0758 40.5376 76.4882 41.3188 73.1126 41.4116L73.6111 58.2047C79.3992 58.0455 85.0951 56.6007 89.2697 52.5606C93.4896 48.4768 94.6564 43.1986 94.6564 38.5521H77.2018ZM73.1322 41.4111L59.8667 41.7471L60.326 58.5412L73.5915 58.2052L73.1322 41.4111ZM51.3691 50.1441C51.3691 55.9 54.6782 60.3522 58.8202 63.0293C62.8405 65.6275 67.8316 66.7761 72.8382 66.7761V49.9761C70.4266 49.9761 69.0469 49.4027 68.5507 49.0819C68.3308 48.9399 68.4053 48.9302 68.5468 49.1593C68.7091 49.4223 68.8237 49.7859 68.8237 50.1441H51.3691ZM72.8382 66.7761C78.3255 66.7761 83.0588 65.8428 86.9138 64.5332L81.1045 48.691C79.0249 49.3975 76.2527 49.9761 72.8382 49.9761V66.7761ZM75.4801 58.3924L77.051 65.3644L94.1091 61.8038L92.5382 54.8318L75.4801 58.3924ZM77.0465 65.3441C76.9697 64.9993 76.5967 63.0901 77.8419 60.9328C79.0363 58.8634 80.7912 58.1951 80.9425 58.1369L87.4249 73.7353C88.8853 73.1731 91.4692 71.9168 93.1 69.0915C94.7815 66.1781 94.4522 63.3449 94.1136 61.8241L77.0465 65.3441ZM84.62 37.9641C84.62 34.2329 83.1629 30.484 80.2029 27.6609C77.1905 24.7878 73.1301 23.3481 68.8237 23.3481V40.1481C68.973 40.1481 68.9021 40.1706 68.687 40.0903C68.4677 40.0085 68.1869 39.8517 67.9171 39.5943C67.3572 39.0602 67.1655 38.4193 67.1655 37.9641H84.62ZM68.8237 23.3481C64.0312 23.3481 59.2462 24.9895 55.8046 28.854C52.5219 32.5402 51.3691 37.2316 51.3691 41.7441H68.8237C68.8237 39.7886 69.3291 39.482 69.0572 39.7872C68.9139 39.9481 68.7162 40.0808 68.547 40.1491C68.4032 40.2069 68.4555 40.1481 68.8237 40.1481V23.3481ZM60.2202 50.1433L72.5257 49.9753L72.278 33.177L59.9726 33.345L60.2202 50.1433ZM72.4018 49.9761C74.8429 49.9761 78.4984 49.409 81.3694 46.4892C84.1406 43.6711 84.62 40.226 84.62 37.9641H67.1655C67.1655 38.2222 67.0777 36.5832 68.6924 34.9411C70.4071 33.1972 72.3172 33.1761 72.4018 33.1761V49.9761ZM114.222 67.0281H105.495V75.4281H114.222V67.0281ZM114.222 64.0881H122.949V42.6972L107.827 58.3723L114.222 64.0881ZM113 40.7361L112.368 49.1141L121.727 49.7683V40.7361H113ZM96.1564 36.7041L90.8464 43.3704L96.9178 47.8506L102.328 42.6439L96.1564 36.7041ZM90.92 32.8401L96.23 26.1738L96.2214 26.1675L90.92 32.8401ZM90.4837 29.1441L96.8637 34.8755L96.8877 34.8509L96.9115 34.8259L90.4837 29.1441ZM113 57.1161L117.574 64.2701L121.727 61.81V57.1161H113ZM113 48.8001H121.727V41.1781L113.845 40.4396L113 48.8001ZM106.455 31.0761C109.839 31.0761 112.119 32.0224 113.403 33.08C114.536 34.0133 115.444 35.4544 115.444 37.9641H132.898C132.898 30.8138 129.966 24.611 124.75 20.3152C119.685 16.1439 113.107 14.2761 106.455 14.2761V31.0761ZM115.444 37.9641V60.5601H132.898V37.9641H115.444ZM115.444 60.5601C115.444 61.3646 115.371 61.4965 115.429 61.2885C115.469 61.1493 115.564 60.8664 115.77 60.5106C115.984 60.1419 116.278 59.7599 116.658 59.4124C117.441 58.6937 118.143 58.5173 118.149 58.5158C118.15 58.5153 118.117 58.5236 118.042 58.5358C117.967 58.5479 117.857 58.5628 117.707 58.5771C117.403 58.606 116.979 58.6281 116.404 58.6281V75.4281C119.927 75.4281 124.937 75.023 128.695 71.5779C132.643 67.9594 132.898 63.142 132.898 60.5601H115.444ZM116.404 58.6281H114.222V75.4281H116.404V58.6281ZM122.949 67.0281V64.0881H105.495V67.0281H122.949ZM107.827 58.3723C107.999 58.1928 107.773 58.4966 106.689 58.8404C105.681 59.1604 104.323 59.3841 102.789 59.3841V76.1841C108.628 76.1841 115.981 74.6086 120.617 69.8039L107.827 58.3723ZM102.789 59.3841C99.5873 59.3841 97.8889 58.6761 97.1977 58.1699C96.9061 57.9563 96.7316 57.743 96.5983 57.4676C96.4546 57.1708 96.2437 56.5571 96.2437 55.4361H78.7891C78.7891 62.0772 81.4778 67.7673 86.6278 71.5393C91.413 75.0441 97.3508 76.1841 102.789 76.1841V59.3841ZM96.2437 55.4361C96.2437 53.133 97.0601 51.9419 98.8078 50.9576C101.104 49.6644 105.466 48.6316 112.368 49.1141L113.632 32.3582C104.912 31.7486 96.5326 32.7739 89.9922 36.4577C82.9036 40.4503 78.7891 47.1552 78.7891 55.4361H96.2437ZM121.727 40.7361V39.2241H104.273V40.7361H121.727ZM121.727 39.2241C121.727 34.6071 119.79 30.4688 116.203 27.6529C112.852 25.0231 108.792 24.1041 105.233 24.1041V40.9041C105.862 40.9041 105.687 41.0772 105.172 40.6732C104.888 40.4501 104.619 40.1313 104.441 39.7579C104.266 39.3919 104.273 39.1686 104.273 39.2241H121.727ZM105.233 24.1041C98.375 24.1041 93.6669 27.2208 89.9852 30.7644L102.328 42.6439C103.374 41.637 103.985 41.2491 104.316 41.0868C104.536 40.98 104.751 40.9041 105.233 40.9041V24.1041ZM101.466 30.0378L96.23 26.1738L85.61 39.5064L90.8464 43.3704L101.466 30.0378ZM96.2214 26.1675C96.6218 26.4622 98.0668 27.6972 98.3558 30.0818C98.661 32.5997 97.433 34.2886 96.8637 34.8755L84.1036 23.4126C82.3125 25.2596 80.5609 28.2506 81.0188 32.0285C81.4605 35.673 83.7346 38.126 85.6186 39.5128L96.2214 26.1675ZM96.9115 34.8259C99.1215 32.5099 102.081 31.0761 106.455 31.0761V14.2761C97.3884 14.2761 89.7005 17.5463 84.0558 23.4624L96.9115 34.8259ZM121.727 57.1161V48.8001H104.273V57.1161H121.727ZM113.845 40.4396C108.215 39.9121 102.875 40.2576 98.5413 42.177C93.6949 44.3233 90.0473 48.6074 90.0473 54.3441H107.502C107.502 55.0312 107.276 55.8653 106.744 56.5923C106.249 57.2679 105.774 57.4671 105.837 57.4392C105.923 57.401 106.417 57.2111 107.526 57.0992C108.618 56.9892 110.137 56.9715 112.155 57.1606L113.845 40.4396ZM90.0473 54.3441C90.0473 57.7803 91.2996 61.7079 94.9972 64.468C98.2665 66.9083 102.18 67.4481 105.32 67.4481V50.6481C104.716 50.6481 104.501 50.5893 104.559 50.6036C104.629 50.6212 105.1 50.749 105.694 51.1922C106.333 51.6699 106.86 52.3247 107.182 53.0501C107.482 53.7231 107.502 54.219 107.502 54.3441H90.0473ZM105.32 67.4481C109.273 67.4481 113.647 66.5959 117.574 64.2701L108.426 49.9622C107.815 50.3243 106.777 50.6481 105.32 50.6481V67.4481ZM153.58 55.5201L161.696 52.4318L158.194 43.9077L149.676 48.0069L153.58 55.5201ZM156.547 62.7441L148.431 65.8325L148.437 65.8481L148.444 65.8638L156.547 62.7441ZM155.151 65.7681L151.247 58.2549L151.12 58.3165L150.994 58.3821L155.151 65.7681ZM132.721 33.0921H141.449V24.6921H132.721V33.0921ZM125.391 23.0961V14.6961H116.663V23.0961H125.391ZM132.721 23.0961V31.4961H141.449V23.0961H132.721ZM132.721 9.90812V1.50812H123.994V9.90812H132.721ZM144.067 23.0961H135.34V31.4961H144.067V23.0961ZM153.754 33.0921V41.4921H162.481V33.0921H153.754ZM144.067 33.0921V24.6921H135.34V33.0921H144.067ZM145.463 58.6085L148.431 65.8325L164.663 59.6558L161.696 52.4318L145.463 58.6085ZM148.444 65.8638C148.172 65.2097 147.639 63.385 148.579 61.2144C149.464 59.1684 150.995 58.3765 151.247 58.2549L159.054 73.2813C160.877 72.4037 163.368 70.7298 164.691 67.6759C166.066 64.4972 165.445 61.5385 164.65 59.6245L148.444 65.8638ZM150.994 58.3821C150.397 58.6929 149.175 59.1321 146.86 59.1321V75.9321C151.527 75.9321 155.715 75.0273 159.307 73.1541L150.994 58.3821ZM146.86 59.1321C143.943 59.1321 142.794 58.4548 142.455 58.1666C142.313 58.0462 141.449 57.328 141.449 54.3441H123.994C123.994 60.7682 126.054 66.644 130.908 70.7656C135.565 74.7195 141.486 75.9321 146.86 75.9321V59.1321ZM141.449 54.3441V33.0921H123.994V54.3441H141.449ZM132.721 24.6921H128.183V41.4921H132.721V24.6921ZM128.183 24.6921C128.508 24.6921 130.365 24.7597 132.123 26.3722C133.957 28.0561 134.118 29.9731 134.118 30.4881H116.663C116.663 32.7671 117.305 35.9861 120.078 38.531C122.772 41.0045 126.025 41.4921 128.183 41.4921V24.6921ZM134.118 30.4881V23.0961H116.663V30.4881H134.118ZM125.391 31.4961H132.721V14.6961H125.391V31.4961ZM141.449 23.0961V9.90812H123.994V23.0961H141.449ZM132.721 18.3081H141.274V1.50812H132.721V18.3081ZM141.274 18.3081C140.89 18.3081 138.921 18.2084 137.147 16.46C135.411 14.7488 135.34 12.9082 135.34 12.5961H152.794C152.794 10.5201 152.287 7.33541 149.634 4.72122C146.944 2.06987 143.578 1.50812 141.274 1.50812V18.3081ZM135.34 12.5961V23.0961H152.794V12.5961H135.34ZM144.067 31.4961H150.874V14.6961H144.067V31.4961ZM150.874 31.4961C150.488 31.4961 148.65 31.3992 146.935 29.7862C145.184 28.1399 145.027 26.297 145.027 25.7841H162.481C162.481 23.5072 161.844 20.3203 159.135 17.771C156.46 15.255 153.18 14.6961 150.874 14.6961V31.4961ZM145.027 25.7841V33.0921H162.481V25.7841H145.027ZM153.754 24.6921H144.067V41.4921H153.754V24.6921ZM135.34 33.0921V51.8241H152.794V33.0921H135.34ZM135.34 51.8241C135.34 54.2413 135.668 58.0726 138.454 61.2143C141.574 64.7334 145.78 65.2641 148.343 65.2641V48.4641C147.94 48.4641 150.008 48.3648 151.732 50.309C152.464 51.1351 152.713 51.8935 152.783 52.1652C152.845 52.4026 152.794 52.3518 152.794 51.8241H135.34ZM148.343 65.2641C152.135 65.2641 155.267 64.0997 157.483 63.0333L149.676 48.0069C148.751 48.4526 148.392 48.4641 148.343 48.4641V65.2641ZM190.038 29.0601L198.328 31.6849L198.381 31.5273L198.429 31.3678L190.038 29.0601ZM187.856 35.4441L183.561 42.7568L192.822 47.7948L196.146 38.0689L187.856 35.4441ZM177.558 40.5681L179.916 32.4807L179.914 32.4803L177.558 40.5681ZM157.136 63.0801L162.42 56.3952L162.203 56.2363L161.976 56.0909L157.136 63.0801ZM156.525 59.8041L149.458 54.8752L149.358 55.0081L149.263 55.1446L156.525 59.8041ZM160.889 54.0081L166.011 47.2074L158.944 42.2757L153.822 49.0792L160.889 54.0081ZM171.711 49.2201L169.444 57.332L169.452 57.3342L169.461 57.3365L171.711 49.2201ZM188.554 26.2041L193.295 19.1517L193.261 19.1308L193.228 19.1102L188.554 26.2041ZM181.747 26.4353L179.565 32.8193L196.146 38.0689L198.328 31.6849L181.747 26.4353ZM192.15 28.1314C187.115 25.3925 181.632 23.5161 174.503 23.5161V40.3161C178.02 40.3161 180.567 41.1278 183.561 42.7568L192.15 28.1314ZM174.503 23.5161C171.78 23.5161 168.451 23.9052 165.509 25.5988C162.017 27.6081 159.754 31.1093 159.754 35.2761H177.209C177.209 36.082 177.001 37.0998 176.393 38.102C175.794 39.0889 175.03 39.6933 174.464 40.0184C173.529 40.557 173.211 40.3161 174.503 40.3161V23.5161ZM159.754 35.2761C159.754 37.1818 160.244 39.2538 161.538 41.2039C162.744 43.0207 164.323 44.24 165.7 45.0704C168.238 46.6025 171.594 47.6824 175.2 48.656L179.914 32.4803C178.258 32.0332 177.057 31.6601 176.191 31.3467C175.764 31.1926 175.458 31.0667 175.246 30.9711C175.032 30.8744 174.955 30.8267 174.971 30.8368C174.973 30.8378 175.625 31.2223 176.248 32.1597C176.958 33.2304 177.209 34.3785 177.209 35.2761H159.754ZM175.198 48.6555C179.194 49.735 181.024 51.0307 181.828 51.8904C182.477 52.5841 182.881 53.4205 182.881 54.9321H200.336C200.336 49.8077 198.689 44.8061 194.8 40.6489C191.065 36.6575 185.869 34.0892 179.916 32.4807L175.198 48.6555ZM182.881 54.9321C182.881 56.1205 182.66 56.7711 182.504 57.0907C182.364 57.3783 182.17 57.6234 181.8 57.884C180.906 58.5128 178.693 59.3841 174.241 59.3841V76.1841C180.523 76.1841 186.994 75.0394 192.1 71.4473C197.663 67.5338 200.336 61.6241 200.336 54.9321H182.881ZM174.241 59.3841C168.6 59.3841 164.518 57.9318 162.42 56.3952L151.851 69.765C157.782 74.1085 165.918 76.1841 174.241 76.1841V59.3841ZM161.976 56.0909C162.743 56.5831 164.208 57.8851 164.616 60.1934C165.004 62.3937 164.148 63.9408 163.786 64.4636L149.263 55.1446C148.028 56.9274 146.824 59.6925 147.407 63.0059C148.012 66.4271 150.219 68.7371 152.295 70.0693L161.976 56.0909ZM163.591 64.733L167.955 58.937L153.822 49.0792L149.458 54.8752L163.591 64.733ZM155.766 60.8089C160.375 64.0254 166.492 66.6081 173.543 66.6081V49.8081C170.994 49.8081 168.383 48.8628 166.011 47.2074L155.766 60.8089ZM173.543 66.6081C176.445 66.6081 179.909 66.2225 182.929 64.4964C186.591 62.4042 188.729 58.817 188.729 54.7641H171.274C171.274 54.0234 171.455 53.024 172.059 52.0108C172.66 51.0011 173.44 50.3813 174.018 50.0509C174.549 49.7475 174.869 49.7063 174.741 49.731C174.625 49.7535 174.253 49.8081 173.543 49.8081V66.6081ZM188.729 54.7641C188.729 50.8091 186.774 47.4644 183.575 45.1356C180.943 43.2184 177.536 42.0221 173.959 41.1037L169.461 57.3365C170.845 57.6916 171.79 58.0049 172.412 58.2545C173.051 58.5107 173.179 58.6317 173.045 58.5336C172.878 58.412 172.352 57.983 171.9 57.1563C171.426 56.287 171.274 55.4193 171.274 54.7641H188.729ZM173.976 41.1082C169.312 39.9009 167.242 38.6931 166.389 37.9286C166.043 37.6178 165.931 37.4109 165.873 37.2764C165.807 37.1208 165.689 36.7617 165.689 36.0321H148.234C148.234 41.3987 150.156 46.3338 154.493 50.2216C158.418 53.7411 163.723 55.8513 169.444 57.332L173.976 41.1082ZM165.689 36.0321C165.689 34.1615 166.309 33.3568 167.07 32.7921C168.119 32.0128 170.403 31.0761 174.503 31.0761V14.2761C167.956 14.2761 161.468 15.7334 156.408 19.4901C151.06 23.4614 148.234 29.3347 148.234 36.0321H165.689ZM174.503 31.0761C178.629 31.0761 181.921 32.1025 183.88 33.298L193.228 19.1102C188.029 15.9377 181.373 14.2761 174.503 14.2761V31.0761ZM183.812 33.2565C184.119 33.447 182.962 32.8419 182.141 31.2239C181.113 29.1989 181.457 27.389 181.645 26.7524L198.429 31.3678C198.967 29.5552 199.311 26.7793 197.825 23.8514C196.545 21.3303 194.472 19.8852 193.295 19.1517L183.812 33.2565ZM194.729 9.57212V1.17212H185.914L186.001 9.65559L194.729 9.57212ZM206.074 12.3441L214.8 12.4086L214.801 12.3764V12.3441H206.074ZM205.812 45.1881L197.085 45.1236V45.1559V45.1881H205.812ZM198.918 51.9081L198.715 60.3058L198.748 60.3065L198.781 60.3071L198.918 51.9081ZM195.165 51.8241L186.438 51.9076L186.522 60.0329L194.962 60.2218L195.165 51.8241ZM194.729 17.9721H203.107V1.17212H194.729V17.9721ZM203.107 17.9721C202.861 17.9721 200.994 17.9209 199.242 16.2712C197.451 14.5859 197.347 12.7152 197.347 12.3441H214.801C214.801 10.125 214.217 6.86837 211.444 4.25901C208.71 1.68536 205.359 1.17212 203.107 1.17212V17.9721ZM197.347 12.2796L197.085 45.1236L214.539 45.2526L214.8 12.4086L197.347 12.2796ZM197.085 45.1881C197.085 46.0914 197.014 46.3878 197.024 46.3502C197.048 46.2492 197.245 45.5295 197.985 44.7426C198.762 43.9152 199.593 43.59 199.933 43.4956C200.16 43.4325 199.976 43.523 199.053 43.5092L198.781 60.3071C202.204 60.3585 207.274 59.9049 210.933 56.0076C214.347 52.373 214.54 47.7341 214.54 45.1881H197.085ZM199.12 43.5104L195.367 43.4264L194.962 60.2218L198.715 60.3058L199.12 43.5104ZM203.891 51.7406L203.455 9.48864L186.001 9.65559L186.438 51.9076L203.891 51.7406ZM200.314 59.0481C199.654 59.0481 200.525 58.8885 201.641 59.8476C202.2 60.3276 202.588 60.9038 202.808 61.4459C203.014 61.9543 203.02 62.2914 203.02 62.3241H185.565C185.565 65.734 186.716 69.5448 190.019 72.3817C193.164 75.0837 197.046 75.8481 200.314 75.8481V59.0481ZM203.02 62.3241C203.02 62.7131 202.867 63.3479 202.283 63.9442C201.636 64.6057 200.821 64.8441 200.314 64.8441V48.0441C191.337 48.0441 185.565 54.98 185.565 62.3241H203.02ZM200.314 64.8441C199.806 64.8441 198.991 64.6057 198.344 63.9442C197.76 63.3479 197.609 62.7131 197.609 62.3241H215.063C215.063 54.98 209.29 48.0441 200.314 48.0441V64.8441ZM197.609 62.3241C197.609 62.2914 197.613 61.9543 197.819 61.4459C198.04 60.9038 198.427 60.3276 198.987 59.8476C200.103 58.8885 200.973 59.0481 200.314 59.0481V75.8481C203.581 75.8481 207.463 75.0837 210.608 72.3817C213.911 69.5448 215.063 65.734 215.063 62.3241H197.609Z" fill="#FF3B18"/>
</g>
</svg>
