<svg width="24" height="24" viewBox="0 0 24 24" fill="none" xmlns="http://www.w3.org/2000/svg">
<path d="M16.171 15.0922L18.9943 12.2537C19.4763 11.7717 19.8477 11.2181 20.1085 10.5928C20.3695 9.96725 20.5 9.31133 20.5 8.625C20.5 7.19767 20.0023 5.98667 19.007 4.992C18.0118 3.99733 16.8001 3.5 15.3717 3.5C14.6881 3.5 14.0334 3.6305 13.4078 3.8915C12.7821 4.15233 12.2283 4.52375 11.7463 5.00575L8.90775 7.829L16.171 15.0922ZM8.62825 20.5C9.31192 20.5 9.96658 20.3695 10.5923 20.1085C11.2179 19.8477 11.7717 19.4763 12.2537 18.9943L15.0922 16.171L7.829 8.90775L5.00575 11.7463C4.52375 12.2283 4.15233 12.7819 3.8915 13.4073C3.6305 14.0328 3.5 14.6887 3.5 15.375C3.5 16.8023 3.99767 18.0133 4.993 19.008C5.98817 20.0027 7.19992 20.5 8.62825 20.5Z" fill="#FF765D"/>
</svg>
