<svg width="48" height="48" viewBox="0 0 48 48" fill="none" xmlns="http://www.w3.org/2000/svg">
<path d="M18 28.5C17.3 28.5 16.7083 28.2583 16.225 27.775C15.7417 27.2917 15.5 26.7 15.5 26C15.5 25.3 15.7417 24.7083 16.225 24.225C16.7083 23.7417 17.3 23.5 18 23.5C18.7 23.5 19.2917 23.7417 19.775 24.225C20.2583 24.7083 20.5 25.3 20.5 26C20.5 26.7 20.2583 27.2917 19.775 27.775C19.2917 28.2583 18.7 28.5 18 28.5ZM30 28.5C29.3 28.5 28.7083 28.2583 28.225 27.775C27.7417 27.2917 27.5 26.7 27.5 26C27.5 25.3 27.7417 24.7083 28.225 24.225C28.7083 23.7417 29.3 23.5 30 23.5C30.7 23.5 31.2917 23.7417 31.775 24.225C32.2583 24.7083 32.5 25.3 32.5 26C32.5 26.7 32.2583 27.2917 31.775 27.775C31.2917 28.2583 30.7 28.5 30 28.5ZM24 40C28.4667 40 32.25 38.45 35.35 35.35C38.45 32.25 40 28.4667 40 24C40 23.2 39.95 22.425 39.85 21.675C39.75 20.925 39.5667 20.2 39.3 19.5C38.6 19.6667 37.9 19.7917 37.2 19.875C36.5 19.9583 35.7667 20 35 20C31.9667 20 29.1 19.35 26.4 18.05C23.7 16.75 21.4 14.9333 19.5 12.6C18.4333 15.2 16.9083 17.4583 14.925 19.375C12.9417 21.2917 10.6333 22.7333 8 23.7V24C8 28.4667 9.55 32.25 12.65 35.35C15.75 38.45 19.5333 40 24 40ZM24.0035 43C21.3755 43 18.9053 42.5013 16.593 41.504C14.2807 40.5067 12.2693 39.1532 10.559 37.4435C8.84867 35.7338 7.4945 33.7233 6.4965 31.412C5.49883 29.1007 5 26.6312 5 24.0035C5 21.3755 5.49867 18.9053 6.496 16.593C7.49333 14.2807 8.84683 12.2693 10.5565 10.559C12.2662 8.84867 14.2767 7.4945 16.588 6.4965C18.8993 5.49883 21.3688 5 23.9965 5C26.6245 5 29.0947 5.49867 31.407 6.496C33.7193 7.49333 35.7307 8.84683 37.441 10.5565C39.1513 12.2662 40.5055 14.2767 41.5035 16.588C42.5012 18.8993 43 21.3688 43 23.9965C43 26.6245 42.5013 29.0947 41.504 31.407C40.5067 33.7193 39.1532 35.7307 37.4435 37.441C35.7338 39.1513 33.7233 40.5055 31.412 41.5035C29.1007 42.5012 26.6312 43 24.0035 43Z" fill="#7F7F7F"/>
</svg>
