<svg width="26" height="24" viewBox="0 0 26 24" fill="none" xmlns="http://www.w3.org/2000/svg">
<path fill-rule="evenodd" clip-rule="evenodd" d="M24.874 0.939006C25.1222 1.10451 25.2946 1.36184 25.3531 1.65439C25.4116 1.94695 25.3515 2.25076 25.186 2.49901L11.686 22.749C11.5936 22.8874 11.4717 23.0035 11.3291 23.0891C11.1864 23.1747 11.0265 23.2276 10.861 23.2439C10.6954 23.2603 10.5283 23.2397 10.3716 23.1837C10.215 23.1277 10.0727 23.0376 9.95501 22.92L0.955014 13.92C0.756294 13.7067 0.648109 13.4247 0.653251 13.1332C0.658394 12.8418 0.776462 12.5637 0.982581 12.3576C1.1887 12.1515 1.46678 12.0334 1.75823 12.0282C2.04968 12.0231 2.33175 12.1313 2.54501 12.33L10.5745 20.3595L23.314 1.24951C23.4798 1.00152 23.7372 0.829507 24.0297 0.771282C24.3223 0.713056 24.6259 0.773385 24.874 0.939006Z" fill="#D2D2D2"/>
</svg>
