<svg width="24" height="24" viewBox="0 0 24 24" fill="none" xmlns="http://www.w3.org/2000/svg">
<path d="M22.1386 13.168H19.7087C19.4647 13.168 19.2601 13.0854 19.0951 12.9202C18.9299 12.755 18.8473 12.5503 18.8473 12.3062C18.8473 12.062 18.9299 11.8574 19.0951 11.6926C19.2601 11.5276 19.4647 11.4451 19.7087 11.4451H22.1386C22.3826 11.4451 22.5872 11.5277 22.7522 11.6929C22.9174 11.8581 23 12.0627 23 12.3068C23 12.5511 22.9174 12.7556 22.7522 12.9205C22.5872 13.0855 22.3826 13.168 22.1386 13.168ZM17.3607 17.7204C17.5079 17.5186 17.6961 17.4022 17.9253 17.3712C18.1542 17.3404 18.3696 17.3986 18.5713 17.5458L20.5084 19.0013C20.7102 19.1487 20.8265 19.3369 20.8573 19.5659C20.8883 19.7948 20.8301 20.0102 20.6827 20.212C20.5355 20.4135 20.3474 20.5298 20.1185 20.5608C19.8895 20.5919 19.6742 20.5337 19.4724 20.3863L17.5353 18.9307C17.3336 18.7835 17.2173 18.5954 17.1864 18.3665C17.1554 18.1375 17.2135 17.9222 17.3607 17.7204ZM20.4642 5.56749L18.5271 7.02304C18.3254 7.17025 18.11 7.22845 17.881 7.19762C17.6521 7.16661 17.4639 7.05022 17.3165 6.84845C17.1693 6.64688 17.1112 6.43152 17.1422 6.20237C17.173 5.97342 17.2893 5.78534 17.4911 5.63813L19.4282 4.18259C19.63 4.03538 19.8453 3.97718 20.0743 4.008C20.3032 4.03902 20.4914 4.15531 20.6388 4.35689C20.786 4.55865 20.8441 4.77401 20.8131 5.00297C20.7823 5.23211 20.666 5.42028 20.4642 5.56749ZM4.24705 15.2664H3.07635C2.50532 15.2664 2.0165 15.0631 1.6099 14.6565C1.2033 14.2499 1 13.7611 1 13.1901V11.423C1 10.8519 1.2033 10.3631 1.6099 9.95652C2.0165 9.54993 2.50532 9.34663 3.07635 9.34663H7.51621L11.0877 7.21083C11.4338 7.00313 11.7828 7.00198 12.1347 7.20739C12.4867 7.4126 12.6627 7.7119 12.6627 8.10529V16.5078C12.6627 16.9012 12.4867 17.2005 12.1347 17.4057C11.7828 17.6111 11.4338 17.6099 11.0877 17.4022L7.51621 15.2664H5.96993V18.8888C5.96993 19.1329 5.88733 19.3374 5.72212 19.5024C5.55692 19.6676 5.35228 19.7502 5.1082 19.7502C4.86394 19.7502 4.65939 19.6676 4.49457 19.5024C4.32956 19.3374 4.24705 19.1329 4.24705 18.8888V15.2664ZM14.2529 15.8893V8.72381C14.7036 9.13175 15.0665 9.6466 15.3418 10.2684C15.6173 10.8901 15.755 11.5704 15.755 12.3091C15.755 13.048 15.6173 13.7275 15.3418 14.3476C15.0665 14.9674 14.7036 15.4813 14.2529 15.8893Z" fill="#FF765D"/>
</svg>
