<svg width="28" height="29" viewBox="0 0 28 29" fill="none" xmlns="http://www.w3.org/2000/svg">
<path d="M16.86 5.94118L23.46 12.4118H18.053C17.715 12.4118 17.4317 12.2997 17.2029 12.0756C16.9743 11.8513 16.86 11.5735 16.86 11.2422V5.94118ZM5.38623 4C4.72997 4 4.1682 4.22906 3.70092 4.68718C3.23364 5.14529 3 5.69605 3 6.33944V23.6606C3 24.304 3.23364 24.8547 3.70092 25.3128C4.1682 25.7709 4.72997 26 5.38623 26H23.0538C23.71 26 24.2718 25.7709 24.7391 25.3128C25.2064 24.8547 25.44 24.304 25.44 23.6606V12.546C25.44 12.2305 25.3782 11.9297 25.2545 11.6437C25.1311 11.3577 24.9611 11.1086 24.7444 10.8964L18.4057 4.682C18.1892 4.46955 17.9351 4.30282 17.6434 4.18182C17.3517 4.06061 17.0449 4 16.723 4H5.38623ZM9.19377 12.7602H13.23C13.5105 12.7602 13.7457 12.8533 13.9355 13.0394C14.1252 13.2255 14.22 13.4561 14.22 13.7311C14.22 14.0063 14.1252 14.2368 13.9355 14.4225C13.7457 14.6084 13.5105 14.7014 13.23 14.7014H9.19377C8.91327 14.7014 8.6782 14.6083 8.48856 14.4222C8.2987 14.236 8.20377 14.0055 8.20377 13.7305C8.20377 13.4553 8.2987 13.2248 8.48856 13.0391C8.6782 12.8532 8.91327 12.7602 9.19377 12.7602ZM9.19377 17.9118H19.2462C19.5267 17.9118 19.7618 18.0048 19.9514 18.191C20.1413 18.3771 20.2362 18.6077 20.2362 18.8827C20.2362 19.1579 20.1413 19.3884 19.9514 19.5741C19.7618 19.76 19.5267 19.8529 19.2462 19.8529H9.19377C8.91327 19.8529 8.6782 19.7599 8.48856 19.5737C8.2987 19.3876 8.20377 19.157 8.20377 18.882C8.20377 18.6068 8.2987 18.3764 8.48856 18.1906C8.6782 18.0047 8.91327 17.9118 9.19377 17.9118Z" fill="#606060"/>
</svg>
