<svg width="24" height="24" viewBox="0 0 24 24" fill="none" xmlns="http://www.w3.org/2000/svg">
<path d="M14 19.5L19 14.5H14.9038C14.6478 14.5 14.4331 14.5866 14.2598 14.7598C14.0866 14.9331 14 15.1477 14 15.4038V19.5ZM5.30775 21C4.81058 21 4.385 20.823 4.031 20.469C3.677 20.115 3.5 19.6894 3.5 19.1923V5.80775C3.5 5.31058 3.677 4.885 4.031 4.531C4.385 4.177 4.81058 4 5.30775 4H18.6923C19.1894 4 19.615 4.177 19.969 4.531C20.323 4.885 20.5 5.31058 20.5 5.80775V14.3963C20.5 14.6401 20.4532 14.8725 20.3595 15.0935C20.266 15.3145 20.1372 15.507 19.973 15.671L15.171 20.473C15.007 20.6372 14.8145 20.766 14.5935 20.8595C14.3725 20.9532 14.1401 21 13.8962 21H5.30775ZM8.19225 14.2308H11.25C11.4625 14.2308 11.6407 14.1588 11.7845 14.015C11.9282 13.8712 12 13.693 12 13.4805C12 13.2678 11.9282 13.0898 11.7845 12.9462C11.6407 12.8026 11.4625 12.7308 11.25 12.7308H8.19225C7.97975 12.7308 7.80167 12.8027 7.658 12.9465C7.51417 13.0903 7.44225 13.2685 7.44225 13.481C7.44225 13.6937 7.51417 13.8717 7.658 14.0153C7.80167 14.1589 7.97975 14.2308 8.19225 14.2308ZM8.19225 10.25H15.8077C16.0203 10.25 16.1983 10.1781 16.342 10.0342C16.4858 9.89042 16.5577 9.71225 16.5577 9.49975C16.5577 9.28708 16.4858 9.109 16.342 8.9655C16.1983 8.82183 16.0203 8.75 15.8077 8.75H8.19225C7.97975 8.75 7.80167 8.82192 7.658 8.96575C7.51417 9.10958 7.44225 9.28775 7.44225 9.50025C7.44225 9.71292 7.51417 9.891 7.658 10.0345C7.80167 10.1782 7.97975 10.25 8.19225 10.25Z" fill="#FF765D"/>
</svg>
