<svg width="28" height="29" viewBox="0 0 28 29" fill="none" xmlns="http://www.w3.org/2000/svg">
<path d="M12.3442 17.004L9.634 14.2936C9.47242 14.1322 9.26932 14.0496 9.02471 14.0457C8.78029 14.042 8.5735 14.1246 8.40433 14.2936C8.23536 14.4627 8.15088 14.6677 8.15088 14.9084C8.15088 15.1491 8.23536 15.3541 8.40433 15.5232L11.606 18.7249C11.8169 18.9356 12.063 19.041 12.3442 19.041C12.6253 19.041 12.8714 18.9356 13.0824 18.7249L19.5731 12.2341C19.7345 12.0725 19.8172 11.8694 19.821 11.6248C19.8247 11.3804 19.7421 11.1736 19.5731 11.0045C19.404 10.8355 19.199 10.751 18.9583 10.751C18.7176 10.751 18.5126 10.8355 18.3435 11.0045L12.3442 17.004ZM14.002 25.5834C12.469 25.5834 11.0281 25.2925 9.67921 24.7107C8.33035 24.129 7.15707 23.3394 6.15938 22.3421C5.16168 21.3448 4.37175 20.172 3.78958 18.8237C3.20761 17.4755 2.91663 16.0349 2.91663 14.5021C2.91663 12.9691 3.20751 11.5282 3.78929 10.1793C4.37107 8.83047 5.16061 7.65719 6.15792 6.6595C7.15522 5.6618 8.32801 4.87187 9.67629 4.28971C11.0246 3.70773 12.4651 3.41675 13.9979 3.41675C15.5309 3.41675 16.9718 3.70764 18.3207 4.28941C19.6696 4.87119 20.8428 5.66073 21.8405 6.65804C22.8382 7.65534 23.6282 8.82814 24.2103 10.1764C24.7923 11.5247 25.0833 12.9652 25.0833 14.498C25.0833 16.031 24.7924 17.472 24.2106 18.8208C23.6288 20.1697 22.8393 21.343 21.842 22.3407C20.8447 23.3384 19.6719 24.1283 18.3236 24.7105C16.9753 25.2924 15.5348 25.5834 14.002 25.5834Z" fill="#606060"/>
</svg>
