<svg width="44" height="40" viewBox="0 0 44 40" fill="none" xmlns="http://www.w3.org/2000/svg">
<path fill-rule="evenodd" clip-rule="evenodd" d="M43.1092 0.336052C43.5505 0.630286 43.8569 1.08776 43.9609 1.60785C44.0649 2.12794 43.9581 2.66806 43.6639 3.10938L19.6639 39.1094C19.4997 39.3554 19.283 39.5619 19.0293 39.714C18.7757 39.8661 18.4915 39.9601 18.1972 39.9892C17.9028 40.0183 17.6057 39.9817 17.3272 39.8822C17.0487 39.7826 16.7958 39.6225 16.5866 39.4134L0.586583 23.4134C0.233303 23.0343 0.0409744 22.5328 0.0501163 22.0147C0.0592582 21.4965 0.269157 21.0022 0.635592 20.6357C1.00203 20.2693 1.49639 20.0594 2.01452 20.0502C2.53266 20.0411 3.03412 20.2334 3.41325 20.5867L17.6879 34.8614L40.3359 0.888052C40.6306 0.447191 41.0882 0.141387 41.6083 0.0378745C42.1284 -0.0656378 42.6682 0.0416146 43.1092 0.336052Z" fill="#FF765D"/>
</svg>
