<svg width="28" height="29" viewBox="0 0 28 29" fill="none" xmlns="http://www.w3.org/2000/svg">
<path d="M12.3442 17.0038L9.634 14.2933C9.47242 14.1319 9.26932 14.0493 9.02471 14.0454C8.78029 14.0417 8.5735 14.1244 8.40433 14.2933C8.23536 14.4625 8.15088 14.6674 8.15088 14.9082C8.15088 15.1489 8.23536 15.3538 8.40433 15.523L11.606 18.7246C11.8169 18.9354 12.063 19.0408 12.3442 19.0408C12.6253 19.0408 12.8714 18.9354 13.0824 18.7246L19.5731 12.2339C19.7345 12.0723 19.8172 11.8692 19.821 11.6246C19.8247 11.3802 19.7421 11.1734 19.5731 11.0042C19.404 10.8352 19.199 10.7508 18.9583 10.7508C18.7176 10.7508 18.5126 10.8352 18.3435 11.0042L12.3442 17.0038ZM14.002 25.5832C12.469 25.5832 11.0281 25.2923 9.67921 24.7105C8.33035 24.1287 7.15707 23.3392 6.15938 22.3419C5.16168 21.3446 4.37175 20.1718 3.78958 18.8235C3.20761 17.4752 2.91663 16.0347 2.91663 14.5019C2.91663 12.9689 3.20751 11.5279 3.78929 10.1791C4.37107 8.83023 5.16061 7.65695 6.15792 6.65925C7.15522 5.66156 8.32801 4.87163 9.67629 4.28946C11.0246 3.70749 12.4651 3.4165 13.9979 3.4165C15.5309 3.4165 16.9718 3.70739 18.3207 4.28917C19.6696 4.87095 20.8428 5.66049 21.8405 6.6578C22.8382 7.6551 23.6282 8.82789 24.2103 10.1762C24.7923 11.5244 25.0833 12.965 25.0833 14.4978C25.0833 16.0308 24.7924 17.4717 24.2106 18.8206C23.6288 20.1694 22.8393 21.3427 21.842 22.3404C20.8447 23.3381 19.6719 24.128 18.3236 24.7102C16.9753 25.2922 15.5348 25.5832 14.002 25.5832Z" fill="#FFFAF9"/>
</svg>
