<svg width="28" height="29" viewBox="0 0 28 29" fill="none" xmlns="http://www.w3.org/2000/svg">
<path d="M25.0232 15.9191H22.2618C21.9844 15.9191 21.752 15.8252 21.5644 15.6375C21.3767 15.4497 21.2828 15.2171 21.2828 14.9398C21.2828 14.6622 21.3767 14.4297 21.5644 14.2424C21.752 14.0549 21.9844 13.9611 22.2618 13.9611H25.0232C25.3006 13.9611 25.5331 14.055 25.7206 14.2427C25.9084 14.4305 26.0022 14.663 26.0022 14.9404C26.0022 15.218 25.9084 15.4505 25.7206 15.6378C25.5331 15.8253 25.3006 15.9191 25.0232 15.9191ZM19.5934 21.0927C19.7607 20.8634 19.9746 20.7312 20.235 20.6959C20.4952 20.6609 20.7399 20.727 20.9692 20.8943L23.1707 22.5485C23.4 22.716 23.5321 22.9299 23.5671 23.1901C23.6024 23.4503 23.5363 23.695 23.3687 23.9243C23.2014 24.1534 22.9877 24.2856 22.7275 24.3208C22.4673 24.3561 22.2225 24.2899 21.9932 24.1224L19.7918 22.4682C19.5625 22.3009 19.4303 22.0872 19.3953 21.827C19.3601 21.5668 19.4261 21.322 19.5934 21.0927ZM23.1204 7.2814L20.919 8.93558C20.6897 9.10288 20.4449 9.16901 20.1847 9.13399C19.9245 9.09874 19.7107 8.96647 19.5431 8.73717C19.3758 8.50808 19.3098 8.26333 19.3451 8.00292C19.3801 7.74273 19.5123 7.52898 19.7416 7.36168L21.943 5.70751C22.1723 5.54021 22.417 5.47407 22.6772 5.5091C22.9374 5.54434 23.1513 5.6765 23.3188 5.90559C23.4861 6.13489 23.5521 6.37964 23.5169 6.63984C23.4819 6.90025 23.3497 7.1141 23.1204 7.2814ZM4.69016 18.3039H3.3597C2.71074 18.3039 2.15521 18.0729 1.69313 17.6108C1.23104 17.1487 1 16.5932 1 15.9442V13.936C1 13.287 1.23104 12.7315 1.69313 12.2694C2.15521 11.8073 2.71074 11.5763 3.3597 11.5763H8.40545L12.4644 9.149C12.8577 8.91295 13.2543 8.91165 13.6542 9.14508C14.0542 9.3783 14.2543 9.71845 14.2543 10.1655V19.7146C14.2543 20.1617 14.0542 20.5019 13.6542 20.7351C13.2543 20.9685 12.8577 20.9672 12.4644 20.7312L8.40545 18.3039H6.64815V22.4206C6.64815 22.698 6.55427 22.9304 6.36652 23.118C6.17878 23.3057 5.94621 23.3996 5.66883 23.3996C5.39123 23.3996 5.15877 23.3057 4.97146 23.118C4.78392 22.9304 4.69016 22.698 4.69016 22.4206V18.3039ZM16.0615 19.0117V10.8684C16.5736 11.332 16.9861 11.9172 17.299 12.6238C17.612 13.3304 17.7686 14.1035 17.7686 14.943C17.7686 15.7828 17.612 16.555 17.299 17.2596C16.9861 17.9641 16.5736 18.5481 16.0615 19.0117Z" fill="#FFFAF9"/>
</svg>
