<svg width="29" height="28" viewBox="0 0 29 28" fill="none" xmlns="http://www.w3.org/2000/svg">
<path d="M6.625 16.3333C6.37708 16.3333 6.16932 16.2494 6.00171 16.0816C5.8339 15.9138 5.75 15.706 5.75 15.458C5.75 15.2099 5.8339 15.0022 6.00171 14.8348C6.16932 14.6671 6.37708 14.5833 6.625 14.5833H13.0417C13.2896 14.5833 13.4974 14.6672 13.6653 14.835C13.8329 15.0028 13.9167 15.2107 13.9167 15.4586C13.9167 15.7067 13.8329 15.9145 13.6653 16.0819C13.4974 16.2495 13.2896 16.3333 13.0417 16.3333H6.625ZM6.625 11.6667C6.37708 11.6667 6.16932 11.5828 6.00171 11.415C5.8339 11.2472 5.75 11.0393 5.75 10.7914C5.75 10.5433 5.8339 10.3355 6.00171 10.1681C6.16932 10.0005 6.37708 9.91667 6.625 9.91667H17.7083C17.9563 9.91667 18.1641 10.0006 18.3319 10.1684C18.4995 10.3362 18.5833 10.544 18.5833 10.792C18.5833 11.0401 18.4995 11.2478 18.3319 11.4153C18.1641 11.5829 17.9563 11.6667 17.7083 11.6667H6.625ZM6.625 7C6.37708 7 6.16932 6.9161 6.00171 6.74829C5.8339 6.58049 5.75 6.37262 5.75 6.12471C5.75 5.8766 5.8339 5.66883 6.00171 5.50142C6.16932 5.33381 6.37708 5.25 6.625 5.25H17.7083C17.9563 5.25 18.1641 5.3339 18.3319 5.50171C18.4995 5.66951 18.5833 5.87738 18.5833 6.12529C18.5833 6.3734 18.4995 6.58117 18.3319 6.74858C18.1641 6.91619 17.9563 7 17.7083 7H6.625ZM15.8014 21.6953V20.1069C15.8014 19.9696 15.8268 19.8366 15.8775 19.7079C15.9285 19.5792 16.0085 19.4602 16.1176 19.3509L22.135 13.3627C22.28 13.2252 22.4366 13.1251 22.6048 13.0623C22.773 12.9995 22.9412 12.9681 23.1094 12.9681C23.2928 12.9681 23.4702 13.0024 23.6417 13.071C23.8132 13.1399 23.9691 13.2431 24.1093 13.3808L25.1884 14.471C25.314 14.6163 25.4113 14.7734 25.4801 14.9424C25.5489 15.1113 25.5833 15.2803 25.5833 15.4493C25.5833 15.6183 25.5538 15.7902 25.4947 15.9653C25.4356 16.1403 25.3335 16.3003 25.1884 16.4453L19.2002 22.4335C19.0911 22.5428 18.9722 22.6228 18.8435 22.6736C18.7146 22.7245 18.5815 22.75 18.4442 22.75H16.8558C16.5569 22.75 16.3065 22.6489 16.1045 22.4467C15.9024 22.2446 15.8014 21.9942 15.8014 21.6953ZM23.1132 16.5757L24.1924 15.4493L23.1132 14.359L22.0049 15.4674L23.1132 16.5757ZM17.1924 21.359H18.3007L22.0877 17.5537L21.5516 16.9995L21.0085 16.4523L17.1924 20.2507V21.359ZM17.1924 21.359V20.2507L21.0085 16.4523L22.0877 17.5537L18.3007 21.359H17.1924Z" fill="white"/>
</svg>
